G04 (created by PCBNEW-RS274X (2012-01-19 BZR 3256)-stable) date 1/26/2013 3:19:43 PM*
G01*
G70*
G90*
%MOIN*%
G04 Gerber Fmt 3.4, Leading zero omitted, Abs format*
%FSLAX34Y34*%
G04 APERTURE LIST*
%ADD10C,0.006000*%
%ADD11R,0.075000X0.037000*%
%ADD12R,0.045000X0.065000*%
%ADD13R,0.075000X0.075000*%
%ADD14C,0.075000*%
%ADD15R,0.080000X0.080000*%
%ADD16C,0.080000*%
G04 APERTURE END LIST*
G54D10*
G54D11*
X43300Y-52540D03*
X43300Y-52790D03*
X43300Y-53050D03*
X43300Y-53300D03*
X43300Y-53560D03*
X43300Y-53815D03*
X43300Y-54070D03*
X45500Y-54070D03*
X45500Y-53815D03*
X45500Y-53560D03*
X45500Y-53300D03*
X45500Y-53045D03*
X45500Y-52790D03*
X45500Y-52535D03*
G54D12*
X56200Y-50500D03*
X56800Y-50500D03*
X56200Y-51500D03*
X56800Y-51500D03*
X41800Y-51500D03*
X41200Y-51500D03*
X41800Y-50500D03*
X41200Y-50500D03*
X41800Y-49500D03*
X41200Y-49500D03*
X41800Y-48500D03*
X41200Y-48500D03*
X41800Y-47500D03*
X41200Y-47500D03*
X41800Y-46500D03*
X41200Y-46500D03*
X56800Y-54500D03*
X56200Y-54500D03*
X41800Y-54500D03*
X41200Y-54500D03*
X41800Y-53500D03*
X41200Y-53500D03*
X41800Y-52500D03*
X41200Y-52500D03*
X56400Y-45500D03*
X57000Y-45500D03*
G54D13*
X58000Y-45500D03*
G54D14*
X58000Y-46500D03*
X58000Y-47500D03*
X58000Y-48500D03*
X58000Y-49500D03*
X58000Y-50500D03*
X58000Y-51500D03*
X58000Y-52500D03*
X58000Y-53500D03*
X58000Y-54500D03*
G54D13*
X40000Y-45500D03*
G54D14*
X40000Y-46500D03*
X40000Y-47500D03*
X40000Y-48500D03*
X40000Y-49500D03*
X40000Y-50500D03*
X40000Y-51500D03*
X40000Y-52500D03*
X40000Y-53500D03*
X40000Y-54500D03*
G54D15*
X47000Y-47500D03*
G54D16*
X47000Y-48500D03*
X47000Y-50500D03*
X47000Y-52500D03*
X47000Y-53500D03*
X51000Y-53500D03*
X51000Y-49500D03*
X51000Y-47500D03*
X47000Y-49500D03*
X47000Y-51500D03*
X51000Y-46500D03*
X51000Y-50500D03*
M02*
