G04 (created by PCBNEW-RS274X (2012-01-19 BZR 3256)-stable) date 1/26/2013 3:19:43 PM*
G01*
G70*
G90*
%MOIN*%
G04 Gerber Fmt 3.4, Leading zero omitted, Abs format*
%FSLAX34Y34*%
G04 APERTURE LIST*
%ADD10C,0.006000*%
%ADD11R,0.055000X0.017000*%
%ADD12R,0.025000X0.045000*%
%ADD13R,0.055000X0.055000*%
%ADD14C,0.055000*%
%ADD15R,0.060000X0.060000*%
%ADD16C,0.060000*%
%ADD17C,0.035000*%
%ADD18C,0.020000*%
%ADD19C,0.010000*%
%ADD20C,0.050000*%
G04 APERTURE END LIST*
G54D10*
G54D11*
X43300Y-52540D03*
X43300Y-52790D03*
X43300Y-53050D03*
X43300Y-53300D03*
X43300Y-53560D03*
X43300Y-53815D03*
X43300Y-54070D03*
X45500Y-54070D03*
X45500Y-53815D03*
X45500Y-53560D03*
X45500Y-53300D03*
X45500Y-53045D03*
X45500Y-52790D03*
X45500Y-52535D03*
G54D12*
X56200Y-50500D03*
X56800Y-50500D03*
X56200Y-51500D03*
X56800Y-51500D03*
X41800Y-51500D03*
X41200Y-51500D03*
X41800Y-50500D03*
X41200Y-50500D03*
X41800Y-49500D03*
X41200Y-49500D03*
X41800Y-48500D03*
X41200Y-48500D03*
X41800Y-47500D03*
X41200Y-47500D03*
X41800Y-46500D03*
X41200Y-46500D03*
X56800Y-54500D03*
X56200Y-54500D03*
X41800Y-54500D03*
X41200Y-54500D03*
X41800Y-53500D03*
X41200Y-53500D03*
X41800Y-52500D03*
X41200Y-52500D03*
X56400Y-45500D03*
X57000Y-45500D03*
G54D13*
X58000Y-45500D03*
G54D14*
X58000Y-46500D03*
X58000Y-47500D03*
X58000Y-48500D03*
X58000Y-49500D03*
X58000Y-50500D03*
X58000Y-51500D03*
X58000Y-52500D03*
X58000Y-53500D03*
X58000Y-54500D03*
G54D13*
X40000Y-45500D03*
G54D14*
X40000Y-46500D03*
X40000Y-47500D03*
X40000Y-48500D03*
X40000Y-49500D03*
X40000Y-50500D03*
X40000Y-51500D03*
X40000Y-52500D03*
X40000Y-53500D03*
X40000Y-54500D03*
G54D15*
X47000Y-47500D03*
G54D16*
X47000Y-48500D03*
X47000Y-50500D03*
X47000Y-52500D03*
X47000Y-53500D03*
X51000Y-53500D03*
X51000Y-49500D03*
X51000Y-47500D03*
X47000Y-49500D03*
X47000Y-51500D03*
X51000Y-46500D03*
X51000Y-50500D03*
G54D17*
X44000Y-53300D03*
X43300Y-52100D03*
X44000Y-54200D03*
X44800Y-53100D03*
X43700Y-50500D03*
X46200Y-53300D03*
X43000Y-51500D03*
G54D18*
X40000Y-46500D02*
X41200Y-46500D01*
X40000Y-47500D02*
X41200Y-47500D01*
X40000Y-48500D02*
X41200Y-48500D01*
X40000Y-49500D02*
X41200Y-49500D01*
X56800Y-50500D02*
X58000Y-50500D01*
X40000Y-50500D02*
X41200Y-50500D01*
X40000Y-51500D02*
X41200Y-51500D01*
X58000Y-51500D02*
X56800Y-51500D01*
G54D19*
X45500Y-53560D02*
X45060Y-53560D01*
X43300Y-54070D02*
X43870Y-54070D01*
X43300Y-52540D02*
X43300Y-52100D01*
G54D20*
X58000Y-45500D02*
X57000Y-45500D01*
G54D19*
X43300Y-53300D02*
X44000Y-53300D01*
X43870Y-54070D02*
X44000Y-54200D01*
X45110Y-52790D02*
X44800Y-53100D01*
X45110Y-52790D02*
X45500Y-52790D01*
X44800Y-53300D02*
X44800Y-53100D01*
X45060Y-53560D02*
X44800Y-53300D01*
X42200Y-52500D02*
X41800Y-52500D01*
X42490Y-52790D02*
X42200Y-52500D01*
X43300Y-52790D02*
X42490Y-52790D01*
X42760Y-53560D02*
X43300Y-53560D01*
X41800Y-53500D02*
X42700Y-53500D01*
X42700Y-53500D02*
X42760Y-53560D01*
X41800Y-54500D02*
X43600Y-54500D01*
X45500Y-53815D02*
X45085Y-53815D01*
X43600Y-54500D02*
X43800Y-54700D01*
X43800Y-54700D02*
X44200Y-54700D01*
X44200Y-54700D02*
X45085Y-53815D01*
G54D18*
X56800Y-54500D02*
X58000Y-54500D01*
G54D19*
X51000Y-49400D02*
X50600Y-49000D01*
X47700Y-46100D02*
X50600Y-49000D01*
X45900Y-46500D02*
X41800Y-46500D01*
X45900Y-46500D02*
X46300Y-46100D01*
X51000Y-49500D02*
X51000Y-49400D01*
X46300Y-46100D02*
X47700Y-46100D01*
X41800Y-48500D02*
X46000Y-48500D01*
X47000Y-49500D02*
X46000Y-48500D01*
X43700Y-50500D02*
X41800Y-50500D01*
X51000Y-53500D02*
X53700Y-53500D01*
X55700Y-51500D02*
X56200Y-51500D01*
X53700Y-53500D02*
X55700Y-51500D01*
X45500Y-53300D02*
X46200Y-53300D01*
X45955Y-53045D02*
X45500Y-53045D01*
X48000Y-53000D02*
X48300Y-53300D01*
X46000Y-53000D02*
X48000Y-53000D01*
X45955Y-53045D02*
X46000Y-53000D01*
X48300Y-53300D02*
X49500Y-54500D01*
X56200Y-54500D02*
X49500Y-54500D01*
X46030Y-54070D02*
X45500Y-54070D01*
X46430Y-54070D02*
X46030Y-54070D01*
X47000Y-53500D02*
X46430Y-54070D01*
X44400Y-53500D02*
X44085Y-53815D01*
X44400Y-52600D02*
X44400Y-53500D01*
X47000Y-51500D02*
X45500Y-51500D01*
X44085Y-53815D02*
X43300Y-53815D01*
X44600Y-52400D02*
X44400Y-52600D01*
X45500Y-51500D02*
X44600Y-52400D01*
X47400Y-47500D02*
X47800Y-47900D01*
X43300Y-53050D02*
X43750Y-53050D01*
X43900Y-52900D02*
X43750Y-53050D01*
X44700Y-51000D02*
X47300Y-51000D01*
X47300Y-51000D02*
X47800Y-50500D01*
X47800Y-50500D02*
X47800Y-50100D01*
X47000Y-47500D02*
X47400Y-47500D01*
X44700Y-51000D02*
X43900Y-51800D01*
X47800Y-47900D02*
X47800Y-50100D01*
X43900Y-51800D02*
X43900Y-52900D01*
X43000Y-51500D02*
X41800Y-51500D01*
X41800Y-49500D02*
X46000Y-49500D01*
X47000Y-50500D02*
X46000Y-49500D01*
X46400Y-46800D02*
X47300Y-46800D01*
X45700Y-47500D02*
X46400Y-46800D01*
X41800Y-47500D02*
X45700Y-47500D01*
X47300Y-46800D02*
X51000Y-50500D01*
G54D18*
X40000Y-52500D02*
X41200Y-52500D01*
X40000Y-53500D02*
X41200Y-53500D01*
X40000Y-54500D02*
X41200Y-54500D01*
G54D19*
X56200Y-50500D02*
X52500Y-50500D01*
X52500Y-50500D02*
X50500Y-52500D01*
X50500Y-52500D02*
X47000Y-52500D01*
G54D10*
G36*
X58275Y-55775D02*
X56474Y-55775D01*
X56474Y-54754D01*
X56474Y-54695D01*
X56474Y-54245D01*
X56474Y-51754D01*
X56474Y-51695D01*
X56474Y-51245D01*
X56451Y-51190D01*
X56409Y-51148D01*
X56354Y-51126D01*
X56295Y-51126D01*
X56045Y-51126D01*
X55990Y-51149D01*
X55948Y-51191D01*
X55926Y-51246D01*
X55926Y-51300D01*
X55700Y-51300D01*
X55623Y-51315D01*
X55558Y-51359D01*
X53617Y-53300D01*
X51403Y-53300D01*
X51381Y-53246D01*
X51255Y-53120D01*
X51090Y-53051D01*
X50911Y-53051D01*
X50746Y-53119D01*
X50620Y-53245D01*
X50551Y-53410D01*
X50551Y-53589D01*
X50619Y-53754D01*
X50745Y-53880D01*
X50910Y-53949D01*
X51089Y-53949D01*
X51254Y-53881D01*
X51380Y-53755D01*
X51403Y-53700D01*
X53700Y-53700D01*
X53700Y-53699D01*
X53776Y-53685D01*
X53777Y-53685D01*
X53841Y-53641D01*
X55782Y-51700D01*
X55926Y-51700D01*
X55926Y-51755D01*
X55949Y-51810D01*
X55991Y-51852D01*
X56046Y-51874D01*
X56105Y-51874D01*
X56355Y-51874D01*
X56410Y-51851D01*
X56452Y-51809D01*
X56474Y-51754D01*
X56474Y-54245D01*
X56451Y-54190D01*
X56409Y-54148D01*
X56354Y-54126D01*
X56295Y-54126D01*
X56045Y-54126D01*
X55990Y-54149D01*
X55948Y-54191D01*
X55926Y-54246D01*
X55926Y-54300D01*
X49582Y-54300D01*
X48443Y-53161D01*
X48441Y-53159D01*
X48441Y-53158D01*
X48141Y-52859D01*
X48077Y-52815D01*
X48000Y-52800D01*
X47335Y-52800D01*
X47380Y-52755D01*
X47403Y-52700D01*
X50500Y-52700D01*
X50500Y-52699D01*
X50576Y-52685D01*
X50577Y-52685D01*
X50641Y-52641D01*
X52582Y-50700D01*
X55926Y-50700D01*
X55926Y-50755D01*
X55949Y-50810D01*
X55991Y-50852D01*
X56046Y-50874D01*
X56105Y-50874D01*
X56355Y-50874D01*
X56410Y-50851D01*
X56452Y-50809D01*
X56474Y-50754D01*
X56474Y-50695D01*
X56474Y-50245D01*
X56451Y-50190D01*
X56409Y-50148D01*
X56354Y-50126D01*
X56350Y-50126D01*
X56350Y-45913D01*
X56350Y-45550D01*
X56350Y-45450D01*
X56350Y-45087D01*
X56288Y-45025D01*
X56226Y-45026D01*
X56134Y-45064D01*
X56064Y-45134D01*
X56026Y-45225D01*
X56026Y-45324D01*
X56025Y-45388D01*
X56087Y-45450D01*
X56350Y-45450D01*
X56350Y-45550D01*
X56087Y-45550D01*
X56025Y-45612D01*
X56026Y-45676D01*
X56026Y-45775D01*
X56064Y-45866D01*
X56134Y-45936D01*
X56226Y-45974D01*
X56288Y-45975D01*
X56350Y-45913D01*
X56350Y-50126D01*
X56295Y-50126D01*
X56045Y-50126D01*
X55990Y-50149D01*
X55948Y-50191D01*
X55926Y-50246D01*
X55926Y-50300D01*
X52500Y-50300D01*
X52423Y-50315D01*
X52358Y-50359D01*
X50417Y-52300D01*
X47403Y-52300D01*
X47381Y-52246D01*
X47255Y-52120D01*
X47090Y-52051D01*
X46911Y-52051D01*
X46746Y-52119D01*
X46620Y-52245D01*
X46551Y-52410D01*
X46551Y-52589D01*
X46619Y-52754D01*
X46665Y-52800D01*
X46000Y-52800D01*
X45934Y-52812D01*
X45986Y-52761D01*
X46024Y-52669D01*
X46025Y-52639D01*
X46025Y-52431D01*
X46024Y-52401D01*
X45986Y-52309D01*
X45916Y-52239D01*
X45825Y-52201D01*
X45726Y-52201D01*
X45612Y-52200D01*
X45550Y-52262D01*
X45550Y-52493D01*
X45963Y-52493D01*
X46025Y-52431D01*
X46025Y-52639D01*
X45963Y-52577D01*
X45856Y-52577D01*
X45804Y-52556D01*
X45745Y-52556D01*
X45450Y-52556D01*
X45450Y-52493D01*
X45450Y-52262D01*
X45388Y-52200D01*
X45274Y-52201D01*
X45175Y-52201D01*
X45084Y-52239D01*
X45014Y-52309D01*
X44976Y-52401D01*
X44975Y-52431D01*
X45037Y-52493D01*
X45450Y-52493D01*
X45450Y-52556D01*
X45195Y-52556D01*
X45144Y-52577D01*
X45037Y-52577D01*
X44975Y-52639D01*
X44975Y-52644D01*
X44968Y-52649D01*
X44842Y-52775D01*
X44736Y-52775D01*
X44616Y-52824D01*
X44600Y-52840D01*
X44600Y-52682D01*
X44741Y-52542D01*
X44741Y-52541D01*
X44743Y-52538D01*
X45582Y-51700D01*
X46596Y-51700D01*
X46619Y-51754D01*
X46745Y-51880D01*
X46910Y-51949D01*
X47089Y-51949D01*
X47254Y-51881D01*
X47380Y-51755D01*
X47449Y-51590D01*
X47449Y-51411D01*
X47381Y-51246D01*
X47329Y-51194D01*
X47376Y-51185D01*
X47377Y-51185D01*
X47441Y-51141D01*
X47941Y-50641D01*
X47985Y-50577D01*
X47985Y-50576D01*
X47999Y-50500D01*
X48000Y-50500D01*
X48000Y-50100D01*
X48000Y-47900D01*
X47985Y-47823D01*
X47941Y-47759D01*
X47941Y-47758D01*
X47541Y-47359D01*
X47477Y-47315D01*
X47449Y-47309D01*
X47449Y-47231D01*
X50573Y-50356D01*
X50551Y-50410D01*
X50551Y-50589D01*
X50619Y-50754D01*
X50745Y-50880D01*
X50910Y-50949D01*
X51089Y-50949D01*
X51254Y-50881D01*
X51380Y-50755D01*
X51449Y-50590D01*
X51449Y-50411D01*
X51449Y-49590D01*
X51449Y-49411D01*
X51449Y-47590D01*
X51449Y-47411D01*
X51449Y-46590D01*
X51449Y-46411D01*
X51381Y-46246D01*
X51255Y-46120D01*
X51090Y-46051D01*
X50911Y-46051D01*
X50746Y-46119D01*
X50620Y-46245D01*
X50551Y-46410D01*
X50551Y-46589D01*
X50619Y-46754D01*
X50745Y-46880D01*
X50910Y-46949D01*
X51089Y-46949D01*
X51254Y-46881D01*
X51380Y-46755D01*
X51449Y-46590D01*
X51449Y-47411D01*
X51381Y-47246D01*
X51255Y-47120D01*
X51090Y-47051D01*
X50911Y-47051D01*
X50746Y-47119D01*
X50620Y-47245D01*
X50551Y-47410D01*
X50551Y-47589D01*
X50619Y-47754D01*
X50745Y-47880D01*
X50910Y-47949D01*
X51089Y-47949D01*
X51254Y-47881D01*
X51380Y-47755D01*
X51449Y-47590D01*
X51449Y-49411D01*
X51381Y-49246D01*
X51255Y-49120D01*
X51090Y-49051D01*
X50933Y-49051D01*
X50743Y-48861D01*
X50741Y-48859D01*
X50741Y-48858D01*
X47841Y-45959D01*
X47777Y-45915D01*
X47700Y-45900D01*
X46300Y-45900D01*
X46223Y-45915D01*
X46158Y-45959D01*
X45817Y-46300D01*
X42074Y-46300D01*
X42074Y-46245D01*
X42051Y-46190D01*
X42009Y-46148D01*
X41954Y-46126D01*
X41895Y-46126D01*
X41645Y-46126D01*
X41590Y-46149D01*
X41548Y-46191D01*
X41526Y-46246D01*
X41526Y-46305D01*
X41526Y-46755D01*
X41549Y-46810D01*
X41591Y-46852D01*
X41646Y-46874D01*
X41705Y-46874D01*
X41955Y-46874D01*
X42010Y-46851D01*
X42052Y-46809D01*
X42074Y-46754D01*
X42074Y-46700D01*
X45900Y-46700D01*
X45900Y-46699D01*
X45976Y-46685D01*
X45977Y-46685D01*
X46041Y-46641D01*
X46382Y-46300D01*
X47617Y-46300D01*
X50458Y-49141D01*
X50459Y-49141D01*
X50461Y-49143D01*
X50603Y-49285D01*
X50551Y-49410D01*
X50551Y-49589D01*
X50619Y-49754D01*
X50745Y-49880D01*
X50910Y-49949D01*
X51089Y-49949D01*
X51254Y-49881D01*
X51380Y-49755D01*
X51449Y-49590D01*
X51449Y-50411D01*
X51381Y-50246D01*
X51255Y-50120D01*
X51090Y-50051D01*
X50911Y-50051D01*
X50856Y-50073D01*
X47441Y-46659D01*
X47377Y-46615D01*
X47300Y-46600D01*
X46400Y-46600D01*
X46323Y-46615D01*
X46258Y-46659D01*
X45617Y-47300D01*
X42074Y-47300D01*
X42074Y-47245D01*
X42051Y-47190D01*
X42009Y-47148D01*
X41954Y-47126D01*
X41895Y-47126D01*
X41645Y-47126D01*
X41590Y-47149D01*
X41548Y-47191D01*
X41526Y-47246D01*
X41526Y-47305D01*
X41526Y-47755D01*
X41549Y-47810D01*
X41591Y-47852D01*
X41646Y-47874D01*
X41705Y-47874D01*
X41955Y-47874D01*
X42010Y-47851D01*
X42052Y-47809D01*
X42074Y-47754D01*
X42074Y-47700D01*
X45700Y-47700D01*
X45700Y-47699D01*
X45776Y-47685D01*
X45777Y-47685D01*
X45841Y-47641D01*
X46482Y-47000D01*
X47217Y-47000D01*
X47268Y-47051D01*
X46670Y-47051D01*
X46615Y-47074D01*
X46573Y-47116D01*
X46551Y-47171D01*
X46551Y-47230D01*
X46551Y-47830D01*
X46574Y-47885D01*
X46616Y-47927D01*
X46671Y-47949D01*
X46730Y-47949D01*
X47330Y-47949D01*
X47385Y-47926D01*
X47427Y-47884D01*
X47448Y-47830D01*
X47600Y-47982D01*
X47600Y-50100D01*
X47600Y-50418D01*
X47449Y-50569D01*
X47449Y-50411D01*
X47449Y-49590D01*
X47449Y-49411D01*
X47449Y-48590D01*
X47449Y-48411D01*
X47381Y-48246D01*
X47255Y-48120D01*
X47090Y-48051D01*
X46911Y-48051D01*
X46746Y-48119D01*
X46620Y-48245D01*
X46551Y-48410D01*
X46551Y-48589D01*
X46619Y-48754D01*
X46745Y-48880D01*
X46910Y-48949D01*
X47089Y-48949D01*
X47254Y-48881D01*
X47380Y-48755D01*
X47449Y-48590D01*
X47449Y-49411D01*
X47381Y-49246D01*
X47255Y-49120D01*
X47090Y-49051D01*
X46911Y-49051D01*
X46856Y-49073D01*
X46141Y-48359D01*
X46077Y-48315D01*
X46000Y-48300D01*
X42074Y-48300D01*
X42074Y-48245D01*
X42051Y-48190D01*
X42009Y-48148D01*
X41954Y-48126D01*
X41895Y-48126D01*
X41645Y-48126D01*
X41590Y-48149D01*
X41548Y-48191D01*
X41526Y-48246D01*
X41526Y-48305D01*
X41526Y-48755D01*
X41549Y-48810D01*
X41591Y-48852D01*
X41646Y-48874D01*
X41705Y-48874D01*
X41955Y-48874D01*
X42010Y-48851D01*
X42052Y-48809D01*
X42074Y-48754D01*
X42074Y-48700D01*
X45917Y-48700D01*
X46573Y-49356D01*
X46551Y-49410D01*
X46551Y-49589D01*
X46619Y-49754D01*
X46745Y-49880D01*
X46910Y-49949D01*
X47089Y-49949D01*
X47254Y-49881D01*
X47380Y-49755D01*
X47449Y-49590D01*
X47449Y-50411D01*
X47381Y-50246D01*
X47255Y-50120D01*
X47090Y-50051D01*
X46911Y-50051D01*
X46856Y-50073D01*
X46141Y-49359D01*
X46077Y-49315D01*
X46000Y-49300D01*
X42074Y-49300D01*
X42074Y-49245D01*
X42051Y-49190D01*
X42009Y-49148D01*
X41954Y-49126D01*
X41895Y-49126D01*
X41645Y-49126D01*
X41590Y-49149D01*
X41548Y-49191D01*
X41526Y-49246D01*
X41526Y-49305D01*
X41526Y-49755D01*
X41549Y-49810D01*
X41591Y-49852D01*
X41646Y-49874D01*
X41705Y-49874D01*
X41955Y-49874D01*
X42010Y-49851D01*
X42052Y-49809D01*
X42074Y-49754D01*
X42074Y-49700D01*
X45917Y-49700D01*
X46573Y-50356D01*
X46551Y-50410D01*
X46551Y-50589D01*
X46619Y-50754D01*
X46665Y-50800D01*
X44700Y-50800D01*
X44623Y-50815D01*
X44558Y-50859D01*
X44025Y-51392D01*
X44025Y-50565D01*
X44025Y-50436D01*
X43976Y-50316D01*
X43885Y-50225D01*
X43765Y-50175D01*
X43636Y-50175D01*
X43516Y-50224D01*
X43440Y-50300D01*
X42074Y-50300D01*
X42074Y-50245D01*
X42051Y-50190D01*
X42009Y-50148D01*
X41954Y-50126D01*
X41895Y-50126D01*
X41645Y-50126D01*
X41590Y-50149D01*
X41548Y-50191D01*
X41526Y-50246D01*
X41526Y-50305D01*
X41526Y-50755D01*
X41549Y-50810D01*
X41591Y-50852D01*
X41646Y-50874D01*
X41705Y-50874D01*
X41955Y-50874D01*
X42010Y-50851D01*
X42052Y-50809D01*
X42074Y-50754D01*
X42074Y-50700D01*
X43440Y-50700D01*
X43515Y-50775D01*
X43635Y-50825D01*
X43764Y-50825D01*
X43884Y-50776D01*
X43975Y-50685D01*
X44025Y-50565D01*
X44025Y-51392D01*
X43759Y-51659D01*
X43715Y-51723D01*
X43700Y-51800D01*
X43700Y-52369D01*
X43659Y-52328D01*
X43604Y-52306D01*
X43554Y-52306D01*
X43575Y-52285D01*
X43625Y-52165D01*
X43625Y-52036D01*
X43576Y-51916D01*
X43485Y-51825D01*
X43365Y-51775D01*
X43325Y-51775D01*
X43325Y-51565D01*
X43325Y-51436D01*
X43276Y-51316D01*
X43185Y-51225D01*
X43065Y-51175D01*
X42936Y-51175D01*
X42816Y-51224D01*
X42740Y-51300D01*
X42074Y-51300D01*
X42074Y-51245D01*
X42051Y-51190D01*
X42009Y-51148D01*
X41954Y-51126D01*
X41895Y-51126D01*
X41645Y-51126D01*
X41590Y-51149D01*
X41548Y-51191D01*
X41526Y-51246D01*
X41526Y-51305D01*
X41526Y-51755D01*
X41549Y-51810D01*
X41591Y-51852D01*
X41646Y-51874D01*
X41705Y-51874D01*
X41955Y-51874D01*
X42010Y-51851D01*
X42052Y-51809D01*
X42074Y-51754D01*
X42074Y-51700D01*
X42740Y-51700D01*
X42815Y-51775D01*
X42935Y-51825D01*
X43064Y-51825D01*
X43184Y-51776D01*
X43275Y-51685D01*
X43325Y-51565D01*
X43325Y-51775D01*
X43236Y-51775D01*
X43116Y-51824D01*
X43025Y-51915D01*
X42975Y-52035D01*
X42975Y-52164D01*
X43024Y-52284D01*
X43046Y-52306D01*
X42995Y-52306D01*
X42940Y-52329D01*
X42898Y-52371D01*
X42876Y-52426D01*
X42876Y-52485D01*
X42876Y-52590D01*
X42572Y-52590D01*
X42341Y-52359D01*
X42277Y-52315D01*
X42200Y-52300D01*
X42074Y-52300D01*
X42074Y-52245D01*
X42051Y-52190D01*
X42009Y-52148D01*
X41954Y-52126D01*
X41895Y-52126D01*
X41645Y-52126D01*
X41590Y-52149D01*
X41548Y-52191D01*
X41526Y-52246D01*
X41526Y-52305D01*
X41526Y-52755D01*
X41549Y-52810D01*
X41591Y-52852D01*
X41646Y-52874D01*
X41705Y-52874D01*
X41955Y-52874D01*
X42010Y-52851D01*
X42052Y-52809D01*
X42074Y-52754D01*
X42074Y-52700D01*
X42117Y-52700D01*
X42348Y-52931D01*
X42349Y-52931D01*
X42381Y-52953D01*
X42413Y-52975D01*
X42414Y-52975D01*
X42490Y-52990D01*
X42876Y-52990D01*
X42876Y-52995D01*
X42876Y-53165D01*
X42880Y-53175D01*
X42876Y-53186D01*
X42876Y-53245D01*
X42876Y-53360D01*
X42842Y-53360D01*
X42841Y-53359D01*
X42777Y-53315D01*
X42700Y-53300D01*
X42074Y-53300D01*
X42074Y-53245D01*
X42051Y-53190D01*
X42009Y-53148D01*
X41954Y-53126D01*
X41895Y-53126D01*
X41645Y-53126D01*
X41590Y-53149D01*
X41548Y-53191D01*
X41526Y-53246D01*
X41526Y-53305D01*
X41526Y-53755D01*
X41549Y-53810D01*
X41591Y-53852D01*
X41646Y-53874D01*
X41705Y-53874D01*
X41955Y-53874D01*
X42010Y-53851D01*
X42052Y-53809D01*
X42074Y-53754D01*
X42074Y-53700D01*
X42617Y-53700D01*
X42618Y-53701D01*
X42619Y-53701D01*
X42683Y-53745D01*
X42759Y-53759D01*
X42760Y-53760D01*
X42876Y-53760D01*
X42876Y-53930D01*
X42881Y-53942D01*
X42876Y-53956D01*
X42876Y-54015D01*
X42876Y-54185D01*
X42899Y-54240D01*
X42941Y-54282D01*
X42986Y-54300D01*
X42074Y-54300D01*
X42074Y-54245D01*
X42051Y-54190D01*
X42009Y-54148D01*
X41954Y-54126D01*
X41895Y-54126D01*
X41645Y-54126D01*
X41590Y-54149D01*
X41548Y-54191D01*
X41526Y-54246D01*
X41526Y-54305D01*
X41526Y-54755D01*
X41549Y-54810D01*
X41591Y-54852D01*
X41646Y-54874D01*
X41705Y-54874D01*
X41955Y-54874D01*
X42010Y-54851D01*
X42052Y-54809D01*
X42074Y-54754D01*
X42074Y-54700D01*
X43517Y-54700D01*
X43658Y-54841D01*
X43659Y-54841D01*
X43723Y-54885D01*
X43799Y-54899D01*
X43800Y-54900D01*
X44200Y-54900D01*
X44200Y-54899D01*
X44276Y-54885D01*
X44277Y-54885D01*
X44341Y-54841D01*
X45076Y-54106D01*
X45076Y-54185D01*
X45099Y-54240D01*
X45141Y-54282D01*
X45196Y-54304D01*
X45255Y-54304D01*
X45805Y-54304D01*
X45860Y-54281D01*
X45871Y-54270D01*
X46030Y-54270D01*
X46430Y-54270D01*
X46430Y-54269D01*
X46506Y-54255D01*
X46507Y-54255D01*
X46571Y-54211D01*
X46855Y-53926D01*
X46910Y-53949D01*
X47089Y-53949D01*
X47254Y-53881D01*
X47380Y-53755D01*
X47449Y-53590D01*
X47449Y-53411D01*
X47381Y-53246D01*
X47335Y-53200D01*
X47917Y-53200D01*
X48158Y-53441D01*
X48159Y-53441D01*
X48161Y-53443D01*
X49359Y-54641D01*
X49423Y-54685D01*
X49424Y-54685D01*
X49500Y-54700D01*
X55926Y-54700D01*
X55926Y-54755D01*
X55949Y-54810D01*
X55991Y-54852D01*
X56046Y-54874D01*
X56105Y-54874D01*
X56355Y-54874D01*
X56410Y-54851D01*
X56452Y-54809D01*
X56474Y-54754D01*
X56474Y-55775D01*
X39725Y-55775D01*
X39725Y-54826D01*
X39759Y-54860D01*
X39915Y-54925D01*
X40084Y-54925D01*
X40240Y-54861D01*
X40351Y-54750D01*
X40926Y-54750D01*
X40926Y-54755D01*
X40949Y-54810D01*
X40991Y-54852D01*
X41046Y-54874D01*
X41105Y-54874D01*
X41355Y-54874D01*
X41410Y-54851D01*
X41452Y-54809D01*
X41474Y-54754D01*
X41474Y-54695D01*
X41474Y-54245D01*
X41451Y-54190D01*
X41409Y-54148D01*
X41354Y-54126D01*
X41295Y-54126D01*
X41045Y-54126D01*
X40990Y-54149D01*
X40948Y-54191D01*
X40926Y-54246D01*
X40926Y-54250D01*
X40351Y-54250D01*
X40241Y-54140D01*
X40085Y-54075D01*
X39916Y-54075D01*
X39760Y-54139D01*
X39725Y-54174D01*
X39725Y-53826D01*
X39759Y-53860D01*
X39915Y-53925D01*
X40084Y-53925D01*
X40240Y-53861D01*
X40351Y-53750D01*
X40926Y-53750D01*
X40926Y-53755D01*
X40949Y-53810D01*
X40991Y-53852D01*
X41046Y-53874D01*
X41105Y-53874D01*
X41355Y-53874D01*
X41410Y-53851D01*
X41452Y-53809D01*
X41474Y-53754D01*
X41474Y-53695D01*
X41474Y-53245D01*
X41451Y-53190D01*
X41409Y-53148D01*
X41354Y-53126D01*
X41295Y-53126D01*
X41045Y-53126D01*
X40990Y-53149D01*
X40948Y-53191D01*
X40926Y-53246D01*
X40926Y-53250D01*
X40351Y-53250D01*
X40241Y-53140D01*
X40085Y-53075D01*
X39916Y-53075D01*
X39760Y-53139D01*
X39725Y-53174D01*
X39725Y-52826D01*
X39759Y-52860D01*
X39915Y-52925D01*
X40084Y-52925D01*
X40240Y-52861D01*
X40351Y-52750D01*
X40926Y-52750D01*
X40926Y-52755D01*
X40949Y-52810D01*
X40991Y-52852D01*
X41046Y-52874D01*
X41105Y-52874D01*
X41355Y-52874D01*
X41410Y-52851D01*
X41452Y-52809D01*
X41474Y-52754D01*
X41474Y-52695D01*
X41474Y-52245D01*
X41451Y-52190D01*
X41409Y-52148D01*
X41354Y-52126D01*
X41295Y-52126D01*
X41045Y-52126D01*
X40990Y-52149D01*
X40948Y-52191D01*
X40926Y-52246D01*
X40926Y-52250D01*
X40351Y-52250D01*
X40241Y-52140D01*
X40085Y-52075D01*
X39916Y-52075D01*
X39760Y-52139D01*
X39725Y-52174D01*
X39725Y-51826D01*
X39759Y-51860D01*
X39915Y-51925D01*
X40084Y-51925D01*
X40240Y-51861D01*
X40351Y-51750D01*
X40926Y-51750D01*
X40926Y-51755D01*
X40949Y-51810D01*
X40991Y-51852D01*
X41046Y-51874D01*
X41105Y-51874D01*
X41355Y-51874D01*
X41410Y-51851D01*
X41452Y-51809D01*
X41474Y-51754D01*
X41474Y-51695D01*
X41474Y-51245D01*
X41451Y-51190D01*
X41409Y-51148D01*
X41354Y-51126D01*
X41295Y-51126D01*
X41045Y-51126D01*
X40990Y-51149D01*
X40948Y-51191D01*
X40926Y-51246D01*
X40926Y-51250D01*
X40351Y-51250D01*
X40241Y-51140D01*
X40085Y-51075D01*
X39916Y-51075D01*
X39760Y-51139D01*
X39725Y-51174D01*
X39725Y-50826D01*
X39759Y-50860D01*
X39915Y-50925D01*
X40084Y-50925D01*
X40240Y-50861D01*
X40351Y-50750D01*
X40926Y-50750D01*
X40926Y-50755D01*
X40949Y-50810D01*
X40991Y-50852D01*
X41046Y-50874D01*
X41105Y-50874D01*
X41355Y-50874D01*
X41410Y-50851D01*
X41452Y-50809D01*
X41474Y-50754D01*
X41474Y-50695D01*
X41474Y-50245D01*
X41451Y-50190D01*
X41409Y-50148D01*
X41354Y-50126D01*
X41295Y-50126D01*
X41045Y-50126D01*
X40990Y-50149D01*
X40948Y-50191D01*
X40926Y-50246D01*
X40926Y-50250D01*
X40351Y-50250D01*
X40241Y-50140D01*
X40085Y-50075D01*
X39916Y-50075D01*
X39760Y-50139D01*
X39725Y-50174D01*
X39725Y-49826D01*
X39759Y-49860D01*
X39915Y-49925D01*
X40084Y-49925D01*
X40240Y-49861D01*
X40351Y-49750D01*
X40926Y-49750D01*
X40926Y-49755D01*
X40949Y-49810D01*
X40991Y-49852D01*
X41046Y-49874D01*
X41105Y-49874D01*
X41355Y-49874D01*
X41410Y-49851D01*
X41452Y-49809D01*
X41474Y-49754D01*
X41474Y-49695D01*
X41474Y-49245D01*
X41451Y-49190D01*
X41409Y-49148D01*
X41354Y-49126D01*
X41295Y-49126D01*
X41045Y-49126D01*
X40990Y-49149D01*
X40948Y-49191D01*
X40926Y-49246D01*
X40926Y-49250D01*
X40351Y-49250D01*
X40241Y-49140D01*
X40085Y-49075D01*
X39916Y-49075D01*
X39760Y-49139D01*
X39725Y-49174D01*
X39725Y-48826D01*
X39759Y-48860D01*
X39915Y-48925D01*
X40084Y-48925D01*
X40240Y-48861D01*
X40351Y-48750D01*
X40926Y-48750D01*
X40926Y-48755D01*
X40949Y-48810D01*
X40991Y-48852D01*
X41046Y-48874D01*
X41105Y-48874D01*
X41355Y-48874D01*
X41410Y-48851D01*
X41452Y-48809D01*
X41474Y-48754D01*
X41474Y-48695D01*
X41474Y-48245D01*
X41451Y-48190D01*
X41409Y-48148D01*
X41354Y-48126D01*
X41295Y-48126D01*
X41045Y-48126D01*
X40990Y-48149D01*
X40948Y-48191D01*
X40926Y-48246D01*
X40926Y-48250D01*
X40351Y-48250D01*
X40241Y-48140D01*
X40085Y-48075D01*
X39916Y-48075D01*
X39760Y-48139D01*
X39725Y-48174D01*
X39725Y-47826D01*
X39759Y-47860D01*
X39915Y-47925D01*
X40084Y-47925D01*
X40240Y-47861D01*
X40351Y-47750D01*
X40926Y-47750D01*
X40926Y-47755D01*
X40949Y-47810D01*
X40991Y-47852D01*
X41046Y-47874D01*
X41105Y-47874D01*
X41355Y-47874D01*
X41410Y-47851D01*
X41452Y-47809D01*
X41474Y-47754D01*
X41474Y-47695D01*
X41474Y-47245D01*
X41451Y-47190D01*
X41409Y-47148D01*
X41354Y-47126D01*
X41295Y-47126D01*
X41045Y-47126D01*
X40990Y-47149D01*
X40948Y-47191D01*
X40926Y-47246D01*
X40926Y-47250D01*
X40351Y-47250D01*
X40241Y-47140D01*
X40085Y-47075D01*
X39916Y-47075D01*
X39760Y-47139D01*
X39725Y-47174D01*
X39725Y-46826D01*
X39759Y-46860D01*
X39915Y-46925D01*
X40084Y-46925D01*
X40240Y-46861D01*
X40351Y-46750D01*
X40926Y-46750D01*
X40926Y-46755D01*
X40949Y-46810D01*
X40991Y-46852D01*
X41046Y-46874D01*
X41105Y-46874D01*
X41355Y-46874D01*
X41410Y-46851D01*
X41452Y-46809D01*
X41474Y-46754D01*
X41474Y-46695D01*
X41474Y-46245D01*
X41451Y-46190D01*
X41409Y-46148D01*
X41354Y-46126D01*
X41295Y-46126D01*
X41045Y-46126D01*
X40990Y-46149D01*
X40948Y-46191D01*
X40926Y-46246D01*
X40926Y-46250D01*
X40525Y-46250D01*
X40525Y-45612D01*
X40525Y-45388D01*
X40524Y-45176D01*
X40486Y-45084D01*
X40416Y-45014D01*
X40325Y-44976D01*
X40226Y-44976D01*
X40112Y-44975D01*
X40050Y-45037D01*
X40050Y-45450D01*
X40463Y-45450D01*
X40525Y-45388D01*
X40525Y-45612D01*
X40463Y-45550D01*
X40050Y-45550D01*
X40050Y-45963D01*
X40112Y-46025D01*
X40226Y-46024D01*
X40325Y-46024D01*
X40416Y-45986D01*
X40486Y-45916D01*
X40524Y-45824D01*
X40525Y-45612D01*
X40525Y-46250D01*
X40351Y-46250D01*
X40241Y-46140D01*
X40085Y-46075D01*
X39916Y-46075D01*
X39760Y-46139D01*
X39725Y-46174D01*
X39725Y-46024D01*
X39774Y-46024D01*
X39888Y-46025D01*
X39950Y-45963D01*
X39950Y-45600D01*
X39950Y-45550D01*
X39950Y-45450D01*
X39950Y-45400D01*
X39950Y-45037D01*
X39888Y-44975D01*
X39774Y-44976D01*
X39725Y-44976D01*
X39725Y-44225D01*
X58275Y-44225D01*
X58275Y-45076D01*
X58245Y-45076D01*
X57695Y-45076D01*
X57640Y-45099D01*
X57639Y-45100D01*
X57000Y-45100D01*
X56867Y-45126D01*
X56845Y-45126D01*
X56790Y-45149D01*
X56756Y-45182D01*
X56736Y-45134D01*
X56666Y-45064D01*
X56574Y-45026D01*
X56512Y-45025D01*
X56450Y-45087D01*
X56450Y-45400D01*
X56450Y-45450D01*
X56450Y-45550D01*
X56450Y-45600D01*
X56450Y-45913D01*
X56512Y-45975D01*
X56574Y-45974D01*
X56666Y-45936D01*
X56736Y-45866D01*
X56756Y-45817D01*
X56791Y-45852D01*
X56846Y-45874D01*
X56867Y-45874D01*
X57000Y-45900D01*
X57639Y-45900D01*
X57641Y-45902D01*
X57696Y-45924D01*
X57755Y-45924D01*
X58275Y-45924D01*
X58275Y-46174D01*
X58241Y-46140D01*
X58085Y-46075D01*
X57916Y-46075D01*
X57760Y-46139D01*
X57640Y-46259D01*
X57575Y-46415D01*
X57575Y-46584D01*
X57639Y-46740D01*
X57759Y-46860D01*
X57915Y-46925D01*
X58084Y-46925D01*
X58240Y-46861D01*
X58275Y-46826D01*
X58275Y-47174D01*
X58241Y-47140D01*
X58085Y-47075D01*
X57916Y-47075D01*
X57760Y-47139D01*
X57640Y-47259D01*
X57575Y-47415D01*
X57575Y-47584D01*
X57639Y-47740D01*
X57759Y-47860D01*
X57915Y-47925D01*
X58084Y-47925D01*
X58240Y-47861D01*
X58275Y-47826D01*
X58275Y-48174D01*
X58241Y-48140D01*
X58085Y-48075D01*
X57916Y-48075D01*
X57760Y-48139D01*
X57640Y-48259D01*
X57575Y-48415D01*
X57575Y-48584D01*
X57639Y-48740D01*
X57759Y-48860D01*
X57915Y-48925D01*
X58084Y-48925D01*
X58240Y-48861D01*
X58275Y-48826D01*
X58275Y-49174D01*
X58241Y-49140D01*
X58085Y-49075D01*
X57916Y-49075D01*
X57760Y-49139D01*
X57640Y-49259D01*
X57575Y-49415D01*
X57575Y-49584D01*
X57639Y-49740D01*
X57759Y-49860D01*
X57915Y-49925D01*
X58084Y-49925D01*
X58240Y-49861D01*
X58275Y-49826D01*
X58275Y-50174D01*
X58241Y-50140D01*
X58085Y-50075D01*
X57916Y-50075D01*
X57760Y-50139D01*
X57649Y-50250D01*
X57074Y-50250D01*
X57074Y-50245D01*
X57051Y-50190D01*
X57009Y-50148D01*
X56954Y-50126D01*
X56895Y-50126D01*
X56645Y-50126D01*
X56590Y-50149D01*
X56548Y-50191D01*
X56526Y-50246D01*
X56526Y-50305D01*
X56526Y-50755D01*
X56549Y-50810D01*
X56591Y-50852D01*
X56646Y-50874D01*
X56705Y-50874D01*
X56955Y-50874D01*
X57010Y-50851D01*
X57052Y-50809D01*
X57074Y-50754D01*
X57074Y-50750D01*
X57649Y-50750D01*
X57759Y-50860D01*
X57915Y-50925D01*
X58084Y-50925D01*
X58240Y-50861D01*
X58275Y-50826D01*
X58275Y-51174D01*
X58241Y-51140D01*
X58085Y-51075D01*
X57916Y-51075D01*
X57760Y-51139D01*
X57649Y-51250D01*
X57074Y-51250D01*
X57074Y-51245D01*
X57051Y-51190D01*
X57009Y-51148D01*
X56954Y-51126D01*
X56895Y-51126D01*
X56645Y-51126D01*
X56590Y-51149D01*
X56548Y-51191D01*
X56526Y-51246D01*
X56526Y-51305D01*
X56526Y-51755D01*
X56549Y-51810D01*
X56591Y-51852D01*
X56646Y-51874D01*
X56705Y-51874D01*
X56955Y-51874D01*
X57010Y-51851D01*
X57052Y-51809D01*
X57074Y-51754D01*
X57074Y-51750D01*
X57649Y-51750D01*
X57759Y-51860D01*
X57915Y-51925D01*
X58084Y-51925D01*
X58240Y-51861D01*
X58275Y-51826D01*
X58275Y-52174D01*
X58241Y-52140D01*
X58085Y-52075D01*
X57916Y-52075D01*
X57760Y-52139D01*
X57640Y-52259D01*
X57575Y-52415D01*
X57575Y-52584D01*
X57639Y-52740D01*
X57759Y-52860D01*
X57915Y-52925D01*
X58084Y-52925D01*
X58240Y-52861D01*
X58275Y-52826D01*
X58275Y-53174D01*
X58241Y-53140D01*
X58085Y-53075D01*
X57916Y-53075D01*
X57760Y-53139D01*
X57640Y-53259D01*
X57575Y-53415D01*
X57575Y-53584D01*
X57639Y-53740D01*
X57759Y-53860D01*
X57915Y-53925D01*
X58084Y-53925D01*
X58240Y-53861D01*
X58275Y-53826D01*
X58275Y-54174D01*
X58241Y-54140D01*
X58085Y-54075D01*
X57916Y-54075D01*
X57760Y-54139D01*
X57649Y-54250D01*
X57074Y-54250D01*
X57074Y-54245D01*
X57051Y-54190D01*
X57009Y-54148D01*
X56954Y-54126D01*
X56895Y-54126D01*
X56645Y-54126D01*
X56590Y-54149D01*
X56548Y-54191D01*
X56526Y-54246D01*
X56526Y-54305D01*
X56526Y-54755D01*
X56549Y-54810D01*
X56591Y-54852D01*
X56646Y-54874D01*
X56705Y-54874D01*
X56955Y-54874D01*
X57010Y-54851D01*
X57052Y-54809D01*
X57074Y-54754D01*
X57074Y-54750D01*
X57649Y-54750D01*
X57759Y-54860D01*
X57915Y-54925D01*
X58084Y-54925D01*
X58240Y-54861D01*
X58275Y-54826D01*
X58275Y-55775D01*
X58275Y-55775D01*
G37*
G54D19*
X58275Y-55775D02*
X56474Y-55775D01*
X56474Y-54754D01*
X56474Y-54695D01*
X56474Y-54245D01*
X56474Y-51754D01*
X56474Y-51695D01*
X56474Y-51245D01*
X56451Y-51190D01*
X56409Y-51148D01*
X56354Y-51126D01*
X56295Y-51126D01*
X56045Y-51126D01*
X55990Y-51149D01*
X55948Y-51191D01*
X55926Y-51246D01*
X55926Y-51300D01*
X55700Y-51300D01*
X55623Y-51315D01*
X55558Y-51359D01*
X53617Y-53300D01*
X51403Y-53300D01*
X51381Y-53246D01*
X51255Y-53120D01*
X51090Y-53051D01*
X50911Y-53051D01*
X50746Y-53119D01*
X50620Y-53245D01*
X50551Y-53410D01*
X50551Y-53589D01*
X50619Y-53754D01*
X50745Y-53880D01*
X50910Y-53949D01*
X51089Y-53949D01*
X51254Y-53881D01*
X51380Y-53755D01*
X51403Y-53700D01*
X53700Y-53700D01*
X53700Y-53699D01*
X53776Y-53685D01*
X53777Y-53685D01*
X53841Y-53641D01*
X55782Y-51700D01*
X55926Y-51700D01*
X55926Y-51755D01*
X55949Y-51810D01*
X55991Y-51852D01*
X56046Y-51874D01*
X56105Y-51874D01*
X56355Y-51874D01*
X56410Y-51851D01*
X56452Y-51809D01*
X56474Y-51754D01*
X56474Y-54245D01*
X56451Y-54190D01*
X56409Y-54148D01*
X56354Y-54126D01*
X56295Y-54126D01*
X56045Y-54126D01*
X55990Y-54149D01*
X55948Y-54191D01*
X55926Y-54246D01*
X55926Y-54300D01*
X49582Y-54300D01*
X48443Y-53161D01*
X48441Y-53159D01*
X48441Y-53158D01*
X48141Y-52859D01*
X48077Y-52815D01*
X48000Y-52800D01*
X47335Y-52800D01*
X47380Y-52755D01*
X47403Y-52700D01*
X50500Y-52700D01*
X50500Y-52699D01*
X50576Y-52685D01*
X50577Y-52685D01*
X50641Y-52641D01*
X52582Y-50700D01*
X55926Y-50700D01*
X55926Y-50755D01*
X55949Y-50810D01*
X55991Y-50852D01*
X56046Y-50874D01*
X56105Y-50874D01*
X56355Y-50874D01*
X56410Y-50851D01*
X56452Y-50809D01*
X56474Y-50754D01*
X56474Y-50695D01*
X56474Y-50245D01*
X56451Y-50190D01*
X56409Y-50148D01*
X56354Y-50126D01*
X56350Y-50126D01*
X56350Y-45913D01*
X56350Y-45550D01*
X56350Y-45450D01*
X56350Y-45087D01*
X56288Y-45025D01*
X56226Y-45026D01*
X56134Y-45064D01*
X56064Y-45134D01*
X56026Y-45225D01*
X56026Y-45324D01*
X56025Y-45388D01*
X56087Y-45450D01*
X56350Y-45450D01*
X56350Y-45550D01*
X56087Y-45550D01*
X56025Y-45612D01*
X56026Y-45676D01*
X56026Y-45775D01*
X56064Y-45866D01*
X56134Y-45936D01*
X56226Y-45974D01*
X56288Y-45975D01*
X56350Y-45913D01*
X56350Y-50126D01*
X56295Y-50126D01*
X56045Y-50126D01*
X55990Y-50149D01*
X55948Y-50191D01*
X55926Y-50246D01*
X55926Y-50300D01*
X52500Y-50300D01*
X52423Y-50315D01*
X52358Y-50359D01*
X50417Y-52300D01*
X47403Y-52300D01*
X47381Y-52246D01*
X47255Y-52120D01*
X47090Y-52051D01*
X46911Y-52051D01*
X46746Y-52119D01*
X46620Y-52245D01*
X46551Y-52410D01*
X46551Y-52589D01*
X46619Y-52754D01*
X46665Y-52800D01*
X46000Y-52800D01*
X45934Y-52812D01*
X45986Y-52761D01*
X46024Y-52669D01*
X46025Y-52639D01*
X46025Y-52431D01*
X46024Y-52401D01*
X45986Y-52309D01*
X45916Y-52239D01*
X45825Y-52201D01*
X45726Y-52201D01*
X45612Y-52200D01*
X45550Y-52262D01*
X45550Y-52493D01*
X45963Y-52493D01*
X46025Y-52431D01*
X46025Y-52639D01*
X45963Y-52577D01*
X45856Y-52577D01*
X45804Y-52556D01*
X45745Y-52556D01*
X45450Y-52556D01*
X45450Y-52493D01*
X45450Y-52262D01*
X45388Y-52200D01*
X45274Y-52201D01*
X45175Y-52201D01*
X45084Y-52239D01*
X45014Y-52309D01*
X44976Y-52401D01*
X44975Y-52431D01*
X45037Y-52493D01*
X45450Y-52493D01*
X45450Y-52556D01*
X45195Y-52556D01*
X45144Y-52577D01*
X45037Y-52577D01*
X44975Y-52639D01*
X44975Y-52644D01*
X44968Y-52649D01*
X44842Y-52775D01*
X44736Y-52775D01*
X44616Y-52824D01*
X44600Y-52840D01*
X44600Y-52682D01*
X44741Y-52542D01*
X44741Y-52541D01*
X44743Y-52538D01*
X45582Y-51700D01*
X46596Y-51700D01*
X46619Y-51754D01*
X46745Y-51880D01*
X46910Y-51949D01*
X47089Y-51949D01*
X47254Y-51881D01*
X47380Y-51755D01*
X47449Y-51590D01*
X47449Y-51411D01*
X47381Y-51246D01*
X47329Y-51194D01*
X47376Y-51185D01*
X47377Y-51185D01*
X47441Y-51141D01*
X47941Y-50641D01*
X47985Y-50577D01*
X47985Y-50576D01*
X47999Y-50500D01*
X48000Y-50500D01*
X48000Y-50100D01*
X48000Y-47900D01*
X47985Y-47823D01*
X47941Y-47759D01*
X47941Y-47758D01*
X47541Y-47359D01*
X47477Y-47315D01*
X47449Y-47309D01*
X47449Y-47231D01*
X50573Y-50356D01*
X50551Y-50410D01*
X50551Y-50589D01*
X50619Y-50754D01*
X50745Y-50880D01*
X50910Y-50949D01*
X51089Y-50949D01*
X51254Y-50881D01*
X51380Y-50755D01*
X51449Y-50590D01*
X51449Y-50411D01*
X51449Y-49590D01*
X51449Y-49411D01*
X51449Y-47590D01*
X51449Y-47411D01*
X51449Y-46590D01*
X51449Y-46411D01*
X51381Y-46246D01*
X51255Y-46120D01*
X51090Y-46051D01*
X50911Y-46051D01*
X50746Y-46119D01*
X50620Y-46245D01*
X50551Y-46410D01*
X50551Y-46589D01*
X50619Y-46754D01*
X50745Y-46880D01*
X50910Y-46949D01*
X51089Y-46949D01*
X51254Y-46881D01*
X51380Y-46755D01*
X51449Y-46590D01*
X51449Y-47411D01*
X51381Y-47246D01*
X51255Y-47120D01*
X51090Y-47051D01*
X50911Y-47051D01*
X50746Y-47119D01*
X50620Y-47245D01*
X50551Y-47410D01*
X50551Y-47589D01*
X50619Y-47754D01*
X50745Y-47880D01*
X50910Y-47949D01*
X51089Y-47949D01*
X51254Y-47881D01*
X51380Y-47755D01*
X51449Y-47590D01*
X51449Y-49411D01*
X51381Y-49246D01*
X51255Y-49120D01*
X51090Y-49051D01*
X50933Y-49051D01*
X50743Y-48861D01*
X50741Y-48859D01*
X50741Y-48858D01*
X47841Y-45959D01*
X47777Y-45915D01*
X47700Y-45900D01*
X46300Y-45900D01*
X46223Y-45915D01*
X46158Y-45959D01*
X45817Y-46300D01*
X42074Y-46300D01*
X42074Y-46245D01*
X42051Y-46190D01*
X42009Y-46148D01*
X41954Y-46126D01*
X41895Y-46126D01*
X41645Y-46126D01*
X41590Y-46149D01*
X41548Y-46191D01*
X41526Y-46246D01*
X41526Y-46305D01*
X41526Y-46755D01*
X41549Y-46810D01*
X41591Y-46852D01*
X41646Y-46874D01*
X41705Y-46874D01*
X41955Y-46874D01*
X42010Y-46851D01*
X42052Y-46809D01*
X42074Y-46754D01*
X42074Y-46700D01*
X45900Y-46700D01*
X45900Y-46699D01*
X45976Y-46685D01*
X45977Y-46685D01*
X46041Y-46641D01*
X46382Y-46300D01*
X47617Y-46300D01*
X50458Y-49141D01*
X50459Y-49141D01*
X50461Y-49143D01*
X50603Y-49285D01*
X50551Y-49410D01*
X50551Y-49589D01*
X50619Y-49754D01*
X50745Y-49880D01*
X50910Y-49949D01*
X51089Y-49949D01*
X51254Y-49881D01*
X51380Y-49755D01*
X51449Y-49590D01*
X51449Y-50411D01*
X51381Y-50246D01*
X51255Y-50120D01*
X51090Y-50051D01*
X50911Y-50051D01*
X50856Y-50073D01*
X47441Y-46659D01*
X47377Y-46615D01*
X47300Y-46600D01*
X46400Y-46600D01*
X46323Y-46615D01*
X46258Y-46659D01*
X45617Y-47300D01*
X42074Y-47300D01*
X42074Y-47245D01*
X42051Y-47190D01*
X42009Y-47148D01*
X41954Y-47126D01*
X41895Y-47126D01*
X41645Y-47126D01*
X41590Y-47149D01*
X41548Y-47191D01*
X41526Y-47246D01*
X41526Y-47305D01*
X41526Y-47755D01*
X41549Y-47810D01*
X41591Y-47852D01*
X41646Y-47874D01*
X41705Y-47874D01*
X41955Y-47874D01*
X42010Y-47851D01*
X42052Y-47809D01*
X42074Y-47754D01*
X42074Y-47700D01*
X45700Y-47700D01*
X45700Y-47699D01*
X45776Y-47685D01*
X45777Y-47685D01*
X45841Y-47641D01*
X46482Y-47000D01*
X47217Y-47000D01*
X47268Y-47051D01*
X46670Y-47051D01*
X46615Y-47074D01*
X46573Y-47116D01*
X46551Y-47171D01*
X46551Y-47230D01*
X46551Y-47830D01*
X46574Y-47885D01*
X46616Y-47927D01*
X46671Y-47949D01*
X46730Y-47949D01*
X47330Y-47949D01*
X47385Y-47926D01*
X47427Y-47884D01*
X47448Y-47830D01*
X47600Y-47982D01*
X47600Y-50100D01*
X47600Y-50418D01*
X47449Y-50569D01*
X47449Y-50411D01*
X47449Y-49590D01*
X47449Y-49411D01*
X47449Y-48590D01*
X47449Y-48411D01*
X47381Y-48246D01*
X47255Y-48120D01*
X47090Y-48051D01*
X46911Y-48051D01*
X46746Y-48119D01*
X46620Y-48245D01*
X46551Y-48410D01*
X46551Y-48589D01*
X46619Y-48754D01*
X46745Y-48880D01*
X46910Y-48949D01*
X47089Y-48949D01*
X47254Y-48881D01*
X47380Y-48755D01*
X47449Y-48590D01*
X47449Y-49411D01*
X47381Y-49246D01*
X47255Y-49120D01*
X47090Y-49051D01*
X46911Y-49051D01*
X46856Y-49073D01*
X46141Y-48359D01*
X46077Y-48315D01*
X46000Y-48300D01*
X42074Y-48300D01*
X42074Y-48245D01*
X42051Y-48190D01*
X42009Y-48148D01*
X41954Y-48126D01*
X41895Y-48126D01*
X41645Y-48126D01*
X41590Y-48149D01*
X41548Y-48191D01*
X41526Y-48246D01*
X41526Y-48305D01*
X41526Y-48755D01*
X41549Y-48810D01*
X41591Y-48852D01*
X41646Y-48874D01*
X41705Y-48874D01*
X41955Y-48874D01*
X42010Y-48851D01*
X42052Y-48809D01*
X42074Y-48754D01*
X42074Y-48700D01*
X45917Y-48700D01*
X46573Y-49356D01*
X46551Y-49410D01*
X46551Y-49589D01*
X46619Y-49754D01*
X46745Y-49880D01*
X46910Y-49949D01*
X47089Y-49949D01*
X47254Y-49881D01*
X47380Y-49755D01*
X47449Y-49590D01*
X47449Y-50411D01*
X47381Y-50246D01*
X47255Y-50120D01*
X47090Y-50051D01*
X46911Y-50051D01*
X46856Y-50073D01*
X46141Y-49359D01*
X46077Y-49315D01*
X46000Y-49300D01*
X42074Y-49300D01*
X42074Y-49245D01*
X42051Y-49190D01*
X42009Y-49148D01*
X41954Y-49126D01*
X41895Y-49126D01*
X41645Y-49126D01*
X41590Y-49149D01*
X41548Y-49191D01*
X41526Y-49246D01*
X41526Y-49305D01*
X41526Y-49755D01*
X41549Y-49810D01*
X41591Y-49852D01*
X41646Y-49874D01*
X41705Y-49874D01*
X41955Y-49874D01*
X42010Y-49851D01*
X42052Y-49809D01*
X42074Y-49754D01*
X42074Y-49700D01*
X45917Y-49700D01*
X46573Y-50356D01*
X46551Y-50410D01*
X46551Y-50589D01*
X46619Y-50754D01*
X46665Y-50800D01*
X44700Y-50800D01*
X44623Y-50815D01*
X44558Y-50859D01*
X44025Y-51392D01*
X44025Y-50565D01*
X44025Y-50436D01*
X43976Y-50316D01*
X43885Y-50225D01*
X43765Y-50175D01*
X43636Y-50175D01*
X43516Y-50224D01*
X43440Y-50300D01*
X42074Y-50300D01*
X42074Y-50245D01*
X42051Y-50190D01*
X42009Y-50148D01*
X41954Y-50126D01*
X41895Y-50126D01*
X41645Y-50126D01*
X41590Y-50149D01*
X41548Y-50191D01*
X41526Y-50246D01*
X41526Y-50305D01*
X41526Y-50755D01*
X41549Y-50810D01*
X41591Y-50852D01*
X41646Y-50874D01*
X41705Y-50874D01*
X41955Y-50874D01*
X42010Y-50851D01*
X42052Y-50809D01*
X42074Y-50754D01*
X42074Y-50700D01*
X43440Y-50700D01*
X43515Y-50775D01*
X43635Y-50825D01*
X43764Y-50825D01*
X43884Y-50776D01*
X43975Y-50685D01*
X44025Y-50565D01*
X44025Y-51392D01*
X43759Y-51659D01*
X43715Y-51723D01*
X43700Y-51800D01*
X43700Y-52369D01*
X43659Y-52328D01*
X43604Y-52306D01*
X43554Y-52306D01*
X43575Y-52285D01*
X43625Y-52165D01*
X43625Y-52036D01*
X43576Y-51916D01*
X43485Y-51825D01*
X43365Y-51775D01*
X43325Y-51775D01*
X43325Y-51565D01*
X43325Y-51436D01*
X43276Y-51316D01*
X43185Y-51225D01*
X43065Y-51175D01*
X42936Y-51175D01*
X42816Y-51224D01*
X42740Y-51300D01*
X42074Y-51300D01*
X42074Y-51245D01*
X42051Y-51190D01*
X42009Y-51148D01*
X41954Y-51126D01*
X41895Y-51126D01*
X41645Y-51126D01*
X41590Y-51149D01*
X41548Y-51191D01*
X41526Y-51246D01*
X41526Y-51305D01*
X41526Y-51755D01*
X41549Y-51810D01*
X41591Y-51852D01*
X41646Y-51874D01*
X41705Y-51874D01*
X41955Y-51874D01*
X42010Y-51851D01*
X42052Y-51809D01*
X42074Y-51754D01*
X42074Y-51700D01*
X42740Y-51700D01*
X42815Y-51775D01*
X42935Y-51825D01*
X43064Y-51825D01*
X43184Y-51776D01*
X43275Y-51685D01*
X43325Y-51565D01*
X43325Y-51775D01*
X43236Y-51775D01*
X43116Y-51824D01*
X43025Y-51915D01*
X42975Y-52035D01*
X42975Y-52164D01*
X43024Y-52284D01*
X43046Y-52306D01*
X42995Y-52306D01*
X42940Y-52329D01*
X42898Y-52371D01*
X42876Y-52426D01*
X42876Y-52485D01*
X42876Y-52590D01*
X42572Y-52590D01*
X42341Y-52359D01*
X42277Y-52315D01*
X42200Y-52300D01*
X42074Y-52300D01*
X42074Y-52245D01*
X42051Y-52190D01*
X42009Y-52148D01*
X41954Y-52126D01*
X41895Y-52126D01*
X41645Y-52126D01*
X41590Y-52149D01*
X41548Y-52191D01*
X41526Y-52246D01*
X41526Y-52305D01*
X41526Y-52755D01*
X41549Y-52810D01*
X41591Y-52852D01*
X41646Y-52874D01*
X41705Y-52874D01*
X41955Y-52874D01*
X42010Y-52851D01*
X42052Y-52809D01*
X42074Y-52754D01*
X42074Y-52700D01*
X42117Y-52700D01*
X42348Y-52931D01*
X42349Y-52931D01*
X42381Y-52953D01*
X42413Y-52975D01*
X42414Y-52975D01*
X42490Y-52990D01*
X42876Y-52990D01*
X42876Y-52995D01*
X42876Y-53165D01*
X42880Y-53175D01*
X42876Y-53186D01*
X42876Y-53245D01*
X42876Y-53360D01*
X42842Y-53360D01*
X42841Y-53359D01*
X42777Y-53315D01*
X42700Y-53300D01*
X42074Y-53300D01*
X42074Y-53245D01*
X42051Y-53190D01*
X42009Y-53148D01*
X41954Y-53126D01*
X41895Y-53126D01*
X41645Y-53126D01*
X41590Y-53149D01*
X41548Y-53191D01*
X41526Y-53246D01*
X41526Y-53305D01*
X41526Y-53755D01*
X41549Y-53810D01*
X41591Y-53852D01*
X41646Y-53874D01*
X41705Y-53874D01*
X41955Y-53874D01*
X42010Y-53851D01*
X42052Y-53809D01*
X42074Y-53754D01*
X42074Y-53700D01*
X42617Y-53700D01*
X42618Y-53701D01*
X42619Y-53701D01*
X42683Y-53745D01*
X42759Y-53759D01*
X42760Y-53760D01*
X42876Y-53760D01*
X42876Y-53930D01*
X42881Y-53942D01*
X42876Y-53956D01*
X42876Y-54015D01*
X42876Y-54185D01*
X42899Y-54240D01*
X42941Y-54282D01*
X42986Y-54300D01*
X42074Y-54300D01*
X42074Y-54245D01*
X42051Y-54190D01*
X42009Y-54148D01*
X41954Y-54126D01*
X41895Y-54126D01*
X41645Y-54126D01*
X41590Y-54149D01*
X41548Y-54191D01*
X41526Y-54246D01*
X41526Y-54305D01*
X41526Y-54755D01*
X41549Y-54810D01*
X41591Y-54852D01*
X41646Y-54874D01*
X41705Y-54874D01*
X41955Y-54874D01*
X42010Y-54851D01*
X42052Y-54809D01*
X42074Y-54754D01*
X42074Y-54700D01*
X43517Y-54700D01*
X43658Y-54841D01*
X43659Y-54841D01*
X43723Y-54885D01*
X43799Y-54899D01*
X43800Y-54900D01*
X44200Y-54900D01*
X44200Y-54899D01*
X44276Y-54885D01*
X44277Y-54885D01*
X44341Y-54841D01*
X45076Y-54106D01*
X45076Y-54185D01*
X45099Y-54240D01*
X45141Y-54282D01*
X45196Y-54304D01*
X45255Y-54304D01*
X45805Y-54304D01*
X45860Y-54281D01*
X45871Y-54270D01*
X46030Y-54270D01*
X46430Y-54270D01*
X46430Y-54269D01*
X46506Y-54255D01*
X46507Y-54255D01*
X46571Y-54211D01*
X46855Y-53926D01*
X46910Y-53949D01*
X47089Y-53949D01*
X47254Y-53881D01*
X47380Y-53755D01*
X47449Y-53590D01*
X47449Y-53411D01*
X47381Y-53246D01*
X47335Y-53200D01*
X47917Y-53200D01*
X48158Y-53441D01*
X48159Y-53441D01*
X48161Y-53443D01*
X49359Y-54641D01*
X49423Y-54685D01*
X49424Y-54685D01*
X49500Y-54700D01*
X55926Y-54700D01*
X55926Y-54755D01*
X55949Y-54810D01*
X55991Y-54852D01*
X56046Y-54874D01*
X56105Y-54874D01*
X56355Y-54874D01*
X56410Y-54851D01*
X56452Y-54809D01*
X56474Y-54754D01*
X56474Y-55775D01*
X39725Y-55775D01*
X39725Y-54826D01*
X39759Y-54860D01*
X39915Y-54925D01*
X40084Y-54925D01*
X40240Y-54861D01*
X40351Y-54750D01*
X40926Y-54750D01*
X40926Y-54755D01*
X40949Y-54810D01*
X40991Y-54852D01*
X41046Y-54874D01*
X41105Y-54874D01*
X41355Y-54874D01*
X41410Y-54851D01*
X41452Y-54809D01*
X41474Y-54754D01*
X41474Y-54695D01*
X41474Y-54245D01*
X41451Y-54190D01*
X41409Y-54148D01*
X41354Y-54126D01*
X41295Y-54126D01*
X41045Y-54126D01*
X40990Y-54149D01*
X40948Y-54191D01*
X40926Y-54246D01*
X40926Y-54250D01*
X40351Y-54250D01*
X40241Y-54140D01*
X40085Y-54075D01*
X39916Y-54075D01*
X39760Y-54139D01*
X39725Y-54174D01*
X39725Y-53826D01*
X39759Y-53860D01*
X39915Y-53925D01*
X40084Y-53925D01*
X40240Y-53861D01*
X40351Y-53750D01*
X40926Y-53750D01*
X40926Y-53755D01*
X40949Y-53810D01*
X40991Y-53852D01*
X41046Y-53874D01*
X41105Y-53874D01*
X41355Y-53874D01*
X41410Y-53851D01*
X41452Y-53809D01*
X41474Y-53754D01*
X41474Y-53695D01*
X41474Y-53245D01*
X41451Y-53190D01*
X41409Y-53148D01*
X41354Y-53126D01*
X41295Y-53126D01*
X41045Y-53126D01*
X40990Y-53149D01*
X40948Y-53191D01*
X40926Y-53246D01*
X40926Y-53250D01*
X40351Y-53250D01*
X40241Y-53140D01*
X40085Y-53075D01*
X39916Y-53075D01*
X39760Y-53139D01*
X39725Y-53174D01*
X39725Y-52826D01*
X39759Y-52860D01*
X39915Y-52925D01*
X40084Y-52925D01*
X40240Y-52861D01*
X40351Y-52750D01*
X40926Y-52750D01*
X40926Y-52755D01*
X40949Y-52810D01*
X40991Y-52852D01*
X41046Y-52874D01*
X41105Y-52874D01*
X41355Y-52874D01*
X41410Y-52851D01*
X41452Y-52809D01*
X41474Y-52754D01*
X41474Y-52695D01*
X41474Y-52245D01*
X41451Y-52190D01*
X41409Y-52148D01*
X41354Y-52126D01*
X41295Y-52126D01*
X41045Y-52126D01*
X40990Y-52149D01*
X40948Y-52191D01*
X40926Y-52246D01*
X40926Y-52250D01*
X40351Y-52250D01*
X40241Y-52140D01*
X40085Y-52075D01*
X39916Y-52075D01*
X39760Y-52139D01*
X39725Y-52174D01*
X39725Y-51826D01*
X39759Y-51860D01*
X39915Y-51925D01*
X40084Y-51925D01*
X40240Y-51861D01*
X40351Y-51750D01*
X40926Y-51750D01*
X40926Y-51755D01*
X40949Y-51810D01*
X40991Y-51852D01*
X41046Y-51874D01*
X41105Y-51874D01*
X41355Y-51874D01*
X41410Y-51851D01*
X41452Y-51809D01*
X41474Y-51754D01*
X41474Y-51695D01*
X41474Y-51245D01*
X41451Y-51190D01*
X41409Y-51148D01*
X41354Y-51126D01*
X41295Y-51126D01*
X41045Y-51126D01*
X40990Y-51149D01*
X40948Y-51191D01*
X40926Y-51246D01*
X40926Y-51250D01*
X40351Y-51250D01*
X40241Y-51140D01*
X40085Y-51075D01*
X39916Y-51075D01*
X39760Y-51139D01*
X39725Y-51174D01*
X39725Y-50826D01*
X39759Y-50860D01*
X39915Y-50925D01*
X40084Y-50925D01*
X40240Y-50861D01*
X40351Y-50750D01*
X40926Y-50750D01*
X40926Y-50755D01*
X40949Y-50810D01*
X40991Y-50852D01*
X41046Y-50874D01*
X41105Y-50874D01*
X41355Y-50874D01*
X41410Y-50851D01*
X41452Y-50809D01*
X41474Y-50754D01*
X41474Y-50695D01*
X41474Y-50245D01*
X41451Y-50190D01*
X41409Y-50148D01*
X41354Y-50126D01*
X41295Y-50126D01*
X41045Y-50126D01*
X40990Y-50149D01*
X40948Y-50191D01*
X40926Y-50246D01*
X40926Y-50250D01*
X40351Y-50250D01*
X40241Y-50140D01*
X40085Y-50075D01*
X39916Y-50075D01*
X39760Y-50139D01*
X39725Y-50174D01*
X39725Y-49826D01*
X39759Y-49860D01*
X39915Y-49925D01*
X40084Y-49925D01*
X40240Y-49861D01*
X40351Y-49750D01*
X40926Y-49750D01*
X40926Y-49755D01*
X40949Y-49810D01*
X40991Y-49852D01*
X41046Y-49874D01*
X41105Y-49874D01*
X41355Y-49874D01*
X41410Y-49851D01*
X41452Y-49809D01*
X41474Y-49754D01*
X41474Y-49695D01*
X41474Y-49245D01*
X41451Y-49190D01*
X41409Y-49148D01*
X41354Y-49126D01*
X41295Y-49126D01*
X41045Y-49126D01*
X40990Y-49149D01*
X40948Y-49191D01*
X40926Y-49246D01*
X40926Y-49250D01*
X40351Y-49250D01*
X40241Y-49140D01*
X40085Y-49075D01*
X39916Y-49075D01*
X39760Y-49139D01*
X39725Y-49174D01*
X39725Y-48826D01*
X39759Y-48860D01*
X39915Y-48925D01*
X40084Y-48925D01*
X40240Y-48861D01*
X40351Y-48750D01*
X40926Y-48750D01*
X40926Y-48755D01*
X40949Y-48810D01*
X40991Y-48852D01*
X41046Y-48874D01*
X41105Y-48874D01*
X41355Y-48874D01*
X41410Y-48851D01*
X41452Y-48809D01*
X41474Y-48754D01*
X41474Y-48695D01*
X41474Y-48245D01*
X41451Y-48190D01*
X41409Y-48148D01*
X41354Y-48126D01*
X41295Y-48126D01*
X41045Y-48126D01*
X40990Y-48149D01*
X40948Y-48191D01*
X40926Y-48246D01*
X40926Y-48250D01*
X40351Y-48250D01*
X40241Y-48140D01*
X40085Y-48075D01*
X39916Y-48075D01*
X39760Y-48139D01*
X39725Y-48174D01*
X39725Y-47826D01*
X39759Y-47860D01*
X39915Y-47925D01*
X40084Y-47925D01*
X40240Y-47861D01*
X40351Y-47750D01*
X40926Y-47750D01*
X40926Y-47755D01*
X40949Y-47810D01*
X40991Y-47852D01*
X41046Y-47874D01*
X41105Y-47874D01*
X41355Y-47874D01*
X41410Y-47851D01*
X41452Y-47809D01*
X41474Y-47754D01*
X41474Y-47695D01*
X41474Y-47245D01*
X41451Y-47190D01*
X41409Y-47148D01*
X41354Y-47126D01*
X41295Y-47126D01*
X41045Y-47126D01*
X40990Y-47149D01*
X40948Y-47191D01*
X40926Y-47246D01*
X40926Y-47250D01*
X40351Y-47250D01*
X40241Y-47140D01*
X40085Y-47075D01*
X39916Y-47075D01*
X39760Y-47139D01*
X39725Y-47174D01*
X39725Y-46826D01*
X39759Y-46860D01*
X39915Y-46925D01*
X40084Y-46925D01*
X40240Y-46861D01*
X40351Y-46750D01*
X40926Y-46750D01*
X40926Y-46755D01*
X40949Y-46810D01*
X40991Y-46852D01*
X41046Y-46874D01*
X41105Y-46874D01*
X41355Y-46874D01*
X41410Y-46851D01*
X41452Y-46809D01*
X41474Y-46754D01*
X41474Y-46695D01*
X41474Y-46245D01*
X41451Y-46190D01*
X41409Y-46148D01*
X41354Y-46126D01*
X41295Y-46126D01*
X41045Y-46126D01*
X40990Y-46149D01*
X40948Y-46191D01*
X40926Y-46246D01*
X40926Y-46250D01*
X40525Y-46250D01*
X40525Y-45612D01*
X40525Y-45388D01*
X40524Y-45176D01*
X40486Y-45084D01*
X40416Y-45014D01*
X40325Y-44976D01*
X40226Y-44976D01*
X40112Y-44975D01*
X40050Y-45037D01*
X40050Y-45450D01*
X40463Y-45450D01*
X40525Y-45388D01*
X40525Y-45612D01*
X40463Y-45550D01*
X40050Y-45550D01*
X40050Y-45963D01*
X40112Y-46025D01*
X40226Y-46024D01*
X40325Y-46024D01*
X40416Y-45986D01*
X40486Y-45916D01*
X40524Y-45824D01*
X40525Y-45612D01*
X40525Y-46250D01*
X40351Y-46250D01*
X40241Y-46140D01*
X40085Y-46075D01*
X39916Y-46075D01*
X39760Y-46139D01*
X39725Y-46174D01*
X39725Y-46024D01*
X39774Y-46024D01*
X39888Y-46025D01*
X39950Y-45963D01*
X39950Y-45600D01*
X39950Y-45550D01*
X39950Y-45450D01*
X39950Y-45400D01*
X39950Y-45037D01*
X39888Y-44975D01*
X39774Y-44976D01*
X39725Y-44976D01*
X39725Y-44225D01*
X58275Y-44225D01*
X58275Y-45076D01*
X58245Y-45076D01*
X57695Y-45076D01*
X57640Y-45099D01*
X57639Y-45100D01*
X57000Y-45100D01*
X56867Y-45126D01*
X56845Y-45126D01*
X56790Y-45149D01*
X56756Y-45182D01*
X56736Y-45134D01*
X56666Y-45064D01*
X56574Y-45026D01*
X56512Y-45025D01*
X56450Y-45087D01*
X56450Y-45400D01*
X56450Y-45450D01*
X56450Y-45550D01*
X56450Y-45600D01*
X56450Y-45913D01*
X56512Y-45975D01*
X56574Y-45974D01*
X56666Y-45936D01*
X56736Y-45866D01*
X56756Y-45817D01*
X56791Y-45852D01*
X56846Y-45874D01*
X56867Y-45874D01*
X57000Y-45900D01*
X57639Y-45900D01*
X57641Y-45902D01*
X57696Y-45924D01*
X57755Y-45924D01*
X58275Y-45924D01*
X58275Y-46174D01*
X58241Y-46140D01*
X58085Y-46075D01*
X57916Y-46075D01*
X57760Y-46139D01*
X57640Y-46259D01*
X57575Y-46415D01*
X57575Y-46584D01*
X57639Y-46740D01*
X57759Y-46860D01*
X57915Y-46925D01*
X58084Y-46925D01*
X58240Y-46861D01*
X58275Y-46826D01*
X58275Y-47174D01*
X58241Y-47140D01*
X58085Y-47075D01*
X57916Y-47075D01*
X57760Y-47139D01*
X57640Y-47259D01*
X57575Y-47415D01*
X57575Y-47584D01*
X57639Y-47740D01*
X57759Y-47860D01*
X57915Y-47925D01*
X58084Y-47925D01*
X58240Y-47861D01*
X58275Y-47826D01*
X58275Y-48174D01*
X58241Y-48140D01*
X58085Y-48075D01*
X57916Y-48075D01*
X57760Y-48139D01*
X57640Y-48259D01*
X57575Y-48415D01*
X57575Y-48584D01*
X57639Y-48740D01*
X57759Y-48860D01*
X57915Y-48925D01*
X58084Y-48925D01*
X58240Y-48861D01*
X58275Y-48826D01*
X58275Y-49174D01*
X58241Y-49140D01*
X58085Y-49075D01*
X57916Y-49075D01*
X57760Y-49139D01*
X57640Y-49259D01*
X57575Y-49415D01*
X57575Y-49584D01*
X57639Y-49740D01*
X57759Y-49860D01*
X57915Y-49925D01*
X58084Y-49925D01*
X58240Y-49861D01*
X58275Y-49826D01*
X58275Y-50174D01*
X58241Y-50140D01*
X58085Y-50075D01*
X57916Y-50075D01*
X57760Y-50139D01*
X57649Y-50250D01*
X57074Y-50250D01*
X57074Y-50245D01*
X57051Y-50190D01*
X57009Y-50148D01*
X56954Y-50126D01*
X56895Y-50126D01*
X56645Y-50126D01*
X56590Y-50149D01*
X56548Y-50191D01*
X56526Y-50246D01*
X56526Y-50305D01*
X56526Y-50755D01*
X56549Y-50810D01*
X56591Y-50852D01*
X56646Y-50874D01*
X56705Y-50874D01*
X56955Y-50874D01*
X57010Y-50851D01*
X57052Y-50809D01*
X57074Y-50754D01*
X57074Y-50750D01*
X57649Y-50750D01*
X57759Y-50860D01*
X57915Y-50925D01*
X58084Y-50925D01*
X58240Y-50861D01*
X58275Y-50826D01*
X58275Y-51174D01*
X58241Y-51140D01*
X58085Y-51075D01*
X57916Y-51075D01*
X57760Y-51139D01*
X57649Y-51250D01*
X57074Y-51250D01*
X57074Y-51245D01*
X57051Y-51190D01*
X57009Y-51148D01*
X56954Y-51126D01*
X56895Y-51126D01*
X56645Y-51126D01*
X56590Y-51149D01*
X56548Y-51191D01*
X56526Y-51246D01*
X56526Y-51305D01*
X56526Y-51755D01*
X56549Y-51810D01*
X56591Y-51852D01*
X56646Y-51874D01*
X56705Y-51874D01*
X56955Y-51874D01*
X57010Y-51851D01*
X57052Y-51809D01*
X57074Y-51754D01*
X57074Y-51750D01*
X57649Y-51750D01*
X57759Y-51860D01*
X57915Y-51925D01*
X58084Y-51925D01*
X58240Y-51861D01*
X58275Y-51826D01*
X58275Y-52174D01*
X58241Y-52140D01*
X58085Y-52075D01*
X57916Y-52075D01*
X57760Y-52139D01*
X57640Y-52259D01*
X57575Y-52415D01*
X57575Y-52584D01*
X57639Y-52740D01*
X57759Y-52860D01*
X57915Y-52925D01*
X58084Y-52925D01*
X58240Y-52861D01*
X58275Y-52826D01*
X58275Y-53174D01*
X58241Y-53140D01*
X58085Y-53075D01*
X57916Y-53075D01*
X57760Y-53139D01*
X57640Y-53259D01*
X57575Y-53415D01*
X57575Y-53584D01*
X57639Y-53740D01*
X57759Y-53860D01*
X57915Y-53925D01*
X58084Y-53925D01*
X58240Y-53861D01*
X58275Y-53826D01*
X58275Y-54174D01*
X58241Y-54140D01*
X58085Y-54075D01*
X57916Y-54075D01*
X57760Y-54139D01*
X57649Y-54250D01*
X57074Y-54250D01*
X57074Y-54245D01*
X57051Y-54190D01*
X57009Y-54148D01*
X56954Y-54126D01*
X56895Y-54126D01*
X56645Y-54126D01*
X56590Y-54149D01*
X56548Y-54191D01*
X56526Y-54246D01*
X56526Y-54305D01*
X56526Y-54755D01*
X56549Y-54810D01*
X56591Y-54852D01*
X56646Y-54874D01*
X56705Y-54874D01*
X56955Y-54874D01*
X57010Y-54851D01*
X57052Y-54809D01*
X57074Y-54754D01*
X57074Y-54750D01*
X57649Y-54750D01*
X57759Y-54860D01*
X57915Y-54925D01*
X58084Y-54925D01*
X58240Y-54861D01*
X58275Y-54826D01*
X58275Y-55775D01*
M02*
