G04 (created by PCBNEW-RS274X (2012-01-19 BZR 3256)-stable) date 1/26/2013 3:19:43 PM*
G01*
G70*
G90*
%MOIN*%
G04 Gerber Fmt 3.4, Leading zero omitted, Abs format*
%FSLAX34Y34*%
G04 APERTURE LIST*
%ADD10C,0.006000*%
%ADD11R,0.055000X0.055000*%
%ADD12C,0.055000*%
%ADD13R,0.060000X0.060000*%
%ADD14C,0.060000*%
%ADD15C,0.035000*%
%ADD16C,0.010000*%
G04 APERTURE END LIST*
G54D10*
G54D11*
X58000Y-45500D03*
G54D12*
X58000Y-46500D03*
X58000Y-47500D03*
X58000Y-48500D03*
X58000Y-49500D03*
X58000Y-50500D03*
X58000Y-51500D03*
X58000Y-52500D03*
X58000Y-53500D03*
X58000Y-54500D03*
G54D11*
X40000Y-45500D03*
G54D12*
X40000Y-46500D03*
X40000Y-47500D03*
X40000Y-48500D03*
X40000Y-49500D03*
X40000Y-50500D03*
X40000Y-51500D03*
X40000Y-52500D03*
X40000Y-53500D03*
X40000Y-54500D03*
G54D13*
X47000Y-47500D03*
G54D14*
X47000Y-48500D03*
X47000Y-50500D03*
X47000Y-52500D03*
X47000Y-53500D03*
X51000Y-53500D03*
X51000Y-49500D03*
X51000Y-47500D03*
X47000Y-49500D03*
X47000Y-51500D03*
X51000Y-46500D03*
X51000Y-50500D03*
G54D15*
X44000Y-53300D03*
X43300Y-52100D03*
X44000Y-54200D03*
X44800Y-53100D03*
X43700Y-50500D03*
X46200Y-53300D03*
X43000Y-51500D03*
G54D16*
X47000Y-48500D02*
X45700Y-48500D01*
X45700Y-48500D02*
X43700Y-50500D01*
X46200Y-53700D02*
X46700Y-54200D01*
X46700Y-54200D02*
X48800Y-54200D01*
X46200Y-53300D02*
X46200Y-53700D01*
X50100Y-52900D02*
X49300Y-53700D01*
X50100Y-48400D02*
X50100Y-52900D01*
X48800Y-54200D02*
X49300Y-53700D01*
X50100Y-48400D02*
X51000Y-47500D01*
X50500Y-46000D02*
X50000Y-46000D01*
X44400Y-46000D02*
X43000Y-47400D01*
X51000Y-46500D02*
X50500Y-46000D01*
X50000Y-46000D02*
X44400Y-46000D01*
X43000Y-47400D02*
X43000Y-51500D01*
G54D10*
G36*
X58275Y-55775D02*
X51449Y-55775D01*
X51449Y-53590D01*
X51449Y-53411D01*
X51449Y-50590D01*
X51449Y-50411D01*
X51449Y-49590D01*
X51449Y-49411D01*
X51449Y-47590D01*
X51449Y-47411D01*
X51449Y-46590D01*
X51449Y-46411D01*
X51381Y-46246D01*
X51255Y-46120D01*
X51090Y-46051D01*
X50911Y-46051D01*
X50855Y-46073D01*
X50641Y-45859D01*
X50577Y-45815D01*
X50500Y-45800D01*
X50000Y-45800D01*
X44400Y-45800D01*
X44323Y-45815D01*
X44258Y-45859D01*
X42859Y-47259D01*
X42815Y-47323D01*
X42800Y-47400D01*
X42800Y-51240D01*
X42725Y-51315D01*
X42675Y-51435D01*
X42675Y-51564D01*
X42724Y-51684D01*
X42815Y-51775D01*
X42935Y-51825D01*
X43064Y-51825D01*
X43184Y-51776D01*
X43275Y-51685D01*
X43325Y-51565D01*
X43325Y-51436D01*
X43276Y-51316D01*
X43200Y-51240D01*
X43200Y-47482D01*
X44482Y-46200D01*
X50000Y-46200D01*
X50418Y-46200D01*
X50573Y-46355D01*
X50551Y-46410D01*
X50551Y-46589D01*
X50619Y-46754D01*
X50745Y-46880D01*
X50910Y-46949D01*
X51089Y-46949D01*
X51254Y-46881D01*
X51380Y-46755D01*
X51449Y-46590D01*
X51449Y-47411D01*
X51381Y-47246D01*
X51255Y-47120D01*
X51090Y-47051D01*
X50911Y-47051D01*
X50746Y-47119D01*
X50620Y-47245D01*
X50551Y-47410D01*
X50551Y-47589D01*
X50573Y-47643D01*
X49959Y-48259D01*
X49915Y-48323D01*
X49900Y-48400D01*
X49900Y-52817D01*
X49159Y-53559D01*
X48718Y-54000D01*
X47449Y-54000D01*
X47449Y-53590D01*
X47449Y-53411D01*
X47449Y-52590D01*
X47449Y-52411D01*
X47449Y-51590D01*
X47449Y-51411D01*
X47449Y-50590D01*
X47449Y-50411D01*
X47449Y-49590D01*
X47449Y-49411D01*
X47449Y-48590D01*
X47449Y-48411D01*
X47449Y-47829D01*
X47449Y-47770D01*
X47449Y-47170D01*
X47426Y-47115D01*
X47384Y-47073D01*
X47329Y-47051D01*
X47270Y-47051D01*
X46670Y-47051D01*
X46615Y-47074D01*
X46573Y-47116D01*
X46551Y-47171D01*
X46551Y-47230D01*
X46551Y-47830D01*
X46574Y-47885D01*
X46616Y-47927D01*
X46671Y-47949D01*
X46730Y-47949D01*
X47330Y-47949D01*
X47385Y-47926D01*
X47427Y-47884D01*
X47449Y-47829D01*
X47449Y-48411D01*
X47381Y-48246D01*
X47255Y-48120D01*
X47090Y-48051D01*
X46911Y-48051D01*
X46746Y-48119D01*
X46620Y-48245D01*
X46597Y-48300D01*
X45700Y-48300D01*
X45623Y-48315D01*
X45558Y-48359D01*
X43742Y-50175D01*
X43636Y-50175D01*
X43516Y-50224D01*
X43425Y-50315D01*
X43375Y-50435D01*
X43375Y-50564D01*
X43424Y-50684D01*
X43515Y-50775D01*
X43635Y-50825D01*
X43764Y-50825D01*
X43884Y-50776D01*
X43975Y-50685D01*
X44025Y-50565D01*
X44025Y-50457D01*
X45782Y-48700D01*
X46596Y-48700D01*
X46619Y-48754D01*
X46745Y-48880D01*
X46910Y-48949D01*
X47089Y-48949D01*
X47254Y-48881D01*
X47380Y-48755D01*
X47449Y-48590D01*
X47449Y-49411D01*
X47381Y-49246D01*
X47255Y-49120D01*
X47090Y-49051D01*
X46911Y-49051D01*
X46746Y-49119D01*
X46620Y-49245D01*
X46551Y-49410D01*
X46551Y-49589D01*
X46619Y-49754D01*
X46745Y-49880D01*
X46910Y-49949D01*
X47089Y-49949D01*
X47254Y-49881D01*
X47380Y-49755D01*
X47449Y-49590D01*
X47449Y-50411D01*
X47381Y-50246D01*
X47255Y-50120D01*
X47090Y-50051D01*
X46911Y-50051D01*
X46746Y-50119D01*
X46620Y-50245D01*
X46551Y-50410D01*
X46551Y-50589D01*
X46619Y-50754D01*
X46745Y-50880D01*
X46910Y-50949D01*
X47089Y-50949D01*
X47254Y-50881D01*
X47380Y-50755D01*
X47449Y-50590D01*
X47449Y-51411D01*
X47381Y-51246D01*
X47255Y-51120D01*
X47090Y-51051D01*
X46911Y-51051D01*
X46746Y-51119D01*
X46620Y-51245D01*
X46551Y-51410D01*
X46551Y-51589D01*
X46619Y-51754D01*
X46745Y-51880D01*
X46910Y-51949D01*
X47089Y-51949D01*
X47254Y-51881D01*
X47380Y-51755D01*
X47449Y-51590D01*
X47449Y-52411D01*
X47381Y-52246D01*
X47255Y-52120D01*
X47090Y-52051D01*
X46911Y-52051D01*
X46746Y-52119D01*
X46620Y-52245D01*
X46551Y-52410D01*
X46551Y-52589D01*
X46619Y-52754D01*
X46745Y-52880D01*
X46910Y-52949D01*
X47089Y-52949D01*
X47254Y-52881D01*
X47380Y-52755D01*
X47449Y-52590D01*
X47449Y-53411D01*
X47381Y-53246D01*
X47255Y-53120D01*
X47090Y-53051D01*
X46911Y-53051D01*
X46746Y-53119D01*
X46620Y-53245D01*
X46551Y-53410D01*
X46551Y-53589D01*
X46619Y-53754D01*
X46745Y-53880D01*
X46910Y-53949D01*
X47089Y-53949D01*
X47254Y-53881D01*
X47380Y-53755D01*
X47449Y-53590D01*
X47449Y-54000D01*
X46782Y-54000D01*
X46400Y-53618D01*
X46400Y-53560D01*
X46475Y-53485D01*
X46525Y-53365D01*
X46525Y-53236D01*
X46476Y-53116D01*
X46385Y-53025D01*
X46265Y-52975D01*
X46136Y-52975D01*
X46016Y-53024D01*
X45925Y-53115D01*
X45875Y-53235D01*
X45875Y-53364D01*
X45924Y-53484D01*
X46000Y-53560D01*
X46000Y-53700D01*
X46015Y-53777D01*
X46059Y-53841D01*
X46559Y-54341D01*
X46623Y-54385D01*
X46624Y-54385D01*
X46700Y-54400D01*
X48800Y-54400D01*
X48800Y-54399D01*
X48876Y-54385D01*
X48877Y-54385D01*
X48941Y-54341D01*
X49441Y-53841D01*
X50241Y-53042D01*
X50241Y-53041D01*
X50285Y-52977D01*
X50299Y-52900D01*
X50300Y-52900D01*
X50300Y-48482D01*
X50856Y-47926D01*
X50910Y-47949D01*
X51089Y-47949D01*
X51254Y-47881D01*
X51380Y-47755D01*
X51449Y-47590D01*
X51449Y-49411D01*
X51381Y-49246D01*
X51255Y-49120D01*
X51090Y-49051D01*
X50911Y-49051D01*
X50746Y-49119D01*
X50620Y-49245D01*
X50551Y-49410D01*
X50551Y-49589D01*
X50619Y-49754D01*
X50745Y-49880D01*
X50910Y-49949D01*
X51089Y-49949D01*
X51254Y-49881D01*
X51380Y-49755D01*
X51449Y-49590D01*
X51449Y-50411D01*
X51381Y-50246D01*
X51255Y-50120D01*
X51090Y-50051D01*
X50911Y-50051D01*
X50746Y-50119D01*
X50620Y-50245D01*
X50551Y-50410D01*
X50551Y-50589D01*
X50619Y-50754D01*
X50745Y-50880D01*
X50910Y-50949D01*
X51089Y-50949D01*
X51254Y-50881D01*
X51380Y-50755D01*
X51449Y-50590D01*
X51449Y-53411D01*
X51381Y-53246D01*
X51255Y-53120D01*
X51090Y-53051D01*
X50911Y-53051D01*
X50746Y-53119D01*
X50620Y-53245D01*
X50551Y-53410D01*
X50551Y-53589D01*
X50619Y-53754D01*
X50745Y-53880D01*
X50910Y-53949D01*
X51089Y-53949D01*
X51254Y-53881D01*
X51380Y-53755D01*
X51449Y-53590D01*
X51449Y-55775D01*
X39725Y-55775D01*
X39725Y-54826D01*
X39759Y-54860D01*
X39915Y-54925D01*
X40084Y-54925D01*
X40240Y-54861D01*
X40360Y-54741D01*
X40425Y-54585D01*
X40425Y-54416D01*
X40361Y-54260D01*
X40241Y-54140D01*
X40085Y-54075D01*
X39916Y-54075D01*
X39760Y-54139D01*
X39725Y-54174D01*
X39725Y-53826D01*
X39759Y-53860D01*
X39915Y-53925D01*
X40084Y-53925D01*
X40240Y-53861D01*
X40360Y-53741D01*
X40425Y-53585D01*
X40425Y-53416D01*
X40361Y-53260D01*
X40241Y-53140D01*
X40085Y-53075D01*
X39916Y-53075D01*
X39760Y-53139D01*
X39725Y-53174D01*
X39725Y-52826D01*
X39759Y-52860D01*
X39915Y-52925D01*
X40084Y-52925D01*
X40240Y-52861D01*
X40360Y-52741D01*
X40425Y-52585D01*
X40425Y-52416D01*
X40361Y-52260D01*
X40241Y-52140D01*
X40085Y-52075D01*
X39916Y-52075D01*
X39760Y-52139D01*
X39725Y-52174D01*
X39725Y-51826D01*
X39759Y-51860D01*
X39915Y-51925D01*
X40084Y-51925D01*
X40240Y-51861D01*
X40360Y-51741D01*
X40425Y-51585D01*
X40425Y-51416D01*
X40361Y-51260D01*
X40241Y-51140D01*
X40085Y-51075D01*
X39916Y-51075D01*
X39760Y-51139D01*
X39725Y-51174D01*
X39725Y-50826D01*
X39759Y-50860D01*
X39915Y-50925D01*
X40084Y-50925D01*
X40240Y-50861D01*
X40360Y-50741D01*
X40425Y-50585D01*
X40425Y-50416D01*
X40361Y-50260D01*
X40241Y-50140D01*
X40085Y-50075D01*
X39916Y-50075D01*
X39760Y-50139D01*
X39725Y-50174D01*
X39725Y-49826D01*
X39759Y-49860D01*
X39915Y-49925D01*
X40084Y-49925D01*
X40240Y-49861D01*
X40360Y-49741D01*
X40425Y-49585D01*
X40425Y-49416D01*
X40361Y-49260D01*
X40241Y-49140D01*
X40085Y-49075D01*
X39916Y-49075D01*
X39760Y-49139D01*
X39725Y-49174D01*
X39725Y-48826D01*
X39759Y-48860D01*
X39915Y-48925D01*
X40084Y-48925D01*
X40240Y-48861D01*
X40360Y-48741D01*
X40425Y-48585D01*
X40425Y-48416D01*
X40361Y-48260D01*
X40241Y-48140D01*
X40085Y-48075D01*
X39916Y-48075D01*
X39760Y-48139D01*
X39725Y-48174D01*
X39725Y-47826D01*
X39759Y-47860D01*
X39915Y-47925D01*
X40084Y-47925D01*
X40240Y-47861D01*
X40360Y-47741D01*
X40425Y-47585D01*
X40425Y-47416D01*
X40361Y-47260D01*
X40241Y-47140D01*
X40085Y-47075D01*
X39916Y-47075D01*
X39760Y-47139D01*
X39725Y-47174D01*
X39725Y-46826D01*
X39759Y-46860D01*
X39915Y-46925D01*
X40084Y-46925D01*
X40240Y-46861D01*
X40360Y-46741D01*
X40425Y-46585D01*
X40425Y-46416D01*
X40361Y-46260D01*
X40241Y-46140D01*
X40085Y-46075D01*
X39916Y-46075D01*
X39760Y-46139D01*
X39725Y-46174D01*
X39725Y-45924D01*
X39755Y-45924D01*
X40305Y-45924D01*
X40360Y-45901D01*
X40402Y-45859D01*
X40424Y-45804D01*
X40424Y-45745D01*
X40424Y-45195D01*
X40401Y-45140D01*
X40359Y-45098D01*
X40304Y-45076D01*
X40245Y-45076D01*
X39725Y-45076D01*
X39725Y-44225D01*
X58275Y-44225D01*
X58275Y-44976D01*
X58226Y-44976D01*
X58112Y-44975D01*
X58050Y-45037D01*
X58050Y-45400D01*
X58050Y-45450D01*
X58050Y-45550D01*
X58050Y-45600D01*
X58050Y-45963D01*
X58112Y-46025D01*
X58226Y-46024D01*
X58275Y-46024D01*
X58275Y-46174D01*
X58241Y-46140D01*
X58085Y-46075D01*
X57950Y-46075D01*
X57950Y-45963D01*
X57950Y-45550D01*
X57950Y-45450D01*
X57950Y-45037D01*
X57888Y-44975D01*
X57774Y-44976D01*
X57675Y-44976D01*
X57584Y-45014D01*
X57514Y-45084D01*
X57476Y-45176D01*
X57475Y-45388D01*
X57537Y-45450D01*
X57950Y-45450D01*
X57950Y-45550D01*
X57537Y-45550D01*
X57475Y-45612D01*
X57476Y-45824D01*
X57514Y-45916D01*
X57584Y-45986D01*
X57675Y-46024D01*
X57774Y-46024D01*
X57888Y-46025D01*
X57950Y-45963D01*
X57950Y-46075D01*
X57916Y-46075D01*
X57760Y-46139D01*
X57640Y-46259D01*
X57575Y-46415D01*
X57575Y-46584D01*
X57639Y-46740D01*
X57759Y-46860D01*
X57915Y-46925D01*
X58084Y-46925D01*
X58240Y-46861D01*
X58275Y-46826D01*
X58275Y-47174D01*
X58241Y-47140D01*
X58085Y-47075D01*
X57916Y-47075D01*
X57760Y-47139D01*
X57640Y-47259D01*
X57575Y-47415D01*
X57575Y-47584D01*
X57639Y-47740D01*
X57759Y-47860D01*
X57915Y-47925D01*
X58084Y-47925D01*
X58240Y-47861D01*
X58275Y-47826D01*
X58275Y-48174D01*
X58241Y-48140D01*
X58085Y-48075D01*
X57916Y-48075D01*
X57760Y-48139D01*
X57640Y-48259D01*
X57575Y-48415D01*
X57575Y-48584D01*
X57639Y-48740D01*
X57759Y-48860D01*
X57915Y-48925D01*
X58084Y-48925D01*
X58240Y-48861D01*
X58275Y-48826D01*
X58275Y-49174D01*
X58241Y-49140D01*
X58085Y-49075D01*
X57916Y-49075D01*
X57760Y-49139D01*
X57640Y-49259D01*
X57575Y-49415D01*
X57575Y-49584D01*
X57639Y-49740D01*
X57759Y-49860D01*
X57915Y-49925D01*
X58084Y-49925D01*
X58240Y-49861D01*
X58275Y-49826D01*
X58275Y-50174D01*
X58241Y-50140D01*
X58085Y-50075D01*
X57916Y-50075D01*
X57760Y-50139D01*
X57640Y-50259D01*
X57575Y-50415D01*
X57575Y-50584D01*
X57639Y-50740D01*
X57759Y-50860D01*
X57915Y-50925D01*
X58084Y-50925D01*
X58240Y-50861D01*
X58275Y-50826D01*
X58275Y-51174D01*
X58241Y-51140D01*
X58085Y-51075D01*
X57916Y-51075D01*
X57760Y-51139D01*
X57640Y-51259D01*
X57575Y-51415D01*
X57575Y-51584D01*
X57639Y-51740D01*
X57759Y-51860D01*
X57915Y-51925D01*
X58084Y-51925D01*
X58240Y-51861D01*
X58275Y-51826D01*
X58275Y-52174D01*
X58241Y-52140D01*
X58085Y-52075D01*
X57916Y-52075D01*
X57760Y-52139D01*
X57640Y-52259D01*
X57575Y-52415D01*
X57575Y-52584D01*
X57639Y-52740D01*
X57759Y-52860D01*
X57915Y-52925D01*
X58084Y-52925D01*
X58240Y-52861D01*
X58275Y-52826D01*
X58275Y-53174D01*
X58241Y-53140D01*
X58085Y-53075D01*
X57916Y-53075D01*
X57760Y-53139D01*
X57640Y-53259D01*
X57575Y-53415D01*
X57575Y-53584D01*
X57639Y-53740D01*
X57759Y-53860D01*
X57915Y-53925D01*
X58084Y-53925D01*
X58240Y-53861D01*
X58275Y-53826D01*
X58275Y-54174D01*
X58241Y-54140D01*
X58085Y-54075D01*
X57916Y-54075D01*
X57760Y-54139D01*
X57640Y-54259D01*
X57575Y-54415D01*
X57575Y-54584D01*
X57639Y-54740D01*
X57759Y-54860D01*
X57915Y-54925D01*
X58084Y-54925D01*
X58240Y-54861D01*
X58275Y-54826D01*
X58275Y-55775D01*
X58275Y-55775D01*
G37*
G54D16*
X58275Y-55775D02*
X51449Y-55775D01*
X51449Y-53590D01*
X51449Y-53411D01*
X51449Y-50590D01*
X51449Y-50411D01*
X51449Y-49590D01*
X51449Y-49411D01*
X51449Y-47590D01*
X51449Y-47411D01*
X51449Y-46590D01*
X51449Y-46411D01*
X51381Y-46246D01*
X51255Y-46120D01*
X51090Y-46051D01*
X50911Y-46051D01*
X50855Y-46073D01*
X50641Y-45859D01*
X50577Y-45815D01*
X50500Y-45800D01*
X50000Y-45800D01*
X44400Y-45800D01*
X44323Y-45815D01*
X44258Y-45859D01*
X42859Y-47259D01*
X42815Y-47323D01*
X42800Y-47400D01*
X42800Y-51240D01*
X42725Y-51315D01*
X42675Y-51435D01*
X42675Y-51564D01*
X42724Y-51684D01*
X42815Y-51775D01*
X42935Y-51825D01*
X43064Y-51825D01*
X43184Y-51776D01*
X43275Y-51685D01*
X43325Y-51565D01*
X43325Y-51436D01*
X43276Y-51316D01*
X43200Y-51240D01*
X43200Y-47482D01*
X44482Y-46200D01*
X50000Y-46200D01*
X50418Y-46200D01*
X50573Y-46355D01*
X50551Y-46410D01*
X50551Y-46589D01*
X50619Y-46754D01*
X50745Y-46880D01*
X50910Y-46949D01*
X51089Y-46949D01*
X51254Y-46881D01*
X51380Y-46755D01*
X51449Y-46590D01*
X51449Y-47411D01*
X51381Y-47246D01*
X51255Y-47120D01*
X51090Y-47051D01*
X50911Y-47051D01*
X50746Y-47119D01*
X50620Y-47245D01*
X50551Y-47410D01*
X50551Y-47589D01*
X50573Y-47643D01*
X49959Y-48259D01*
X49915Y-48323D01*
X49900Y-48400D01*
X49900Y-52817D01*
X49159Y-53559D01*
X48718Y-54000D01*
X47449Y-54000D01*
X47449Y-53590D01*
X47449Y-53411D01*
X47449Y-52590D01*
X47449Y-52411D01*
X47449Y-51590D01*
X47449Y-51411D01*
X47449Y-50590D01*
X47449Y-50411D01*
X47449Y-49590D01*
X47449Y-49411D01*
X47449Y-48590D01*
X47449Y-48411D01*
X47449Y-47829D01*
X47449Y-47770D01*
X47449Y-47170D01*
X47426Y-47115D01*
X47384Y-47073D01*
X47329Y-47051D01*
X47270Y-47051D01*
X46670Y-47051D01*
X46615Y-47074D01*
X46573Y-47116D01*
X46551Y-47171D01*
X46551Y-47230D01*
X46551Y-47830D01*
X46574Y-47885D01*
X46616Y-47927D01*
X46671Y-47949D01*
X46730Y-47949D01*
X47330Y-47949D01*
X47385Y-47926D01*
X47427Y-47884D01*
X47449Y-47829D01*
X47449Y-48411D01*
X47381Y-48246D01*
X47255Y-48120D01*
X47090Y-48051D01*
X46911Y-48051D01*
X46746Y-48119D01*
X46620Y-48245D01*
X46597Y-48300D01*
X45700Y-48300D01*
X45623Y-48315D01*
X45558Y-48359D01*
X43742Y-50175D01*
X43636Y-50175D01*
X43516Y-50224D01*
X43425Y-50315D01*
X43375Y-50435D01*
X43375Y-50564D01*
X43424Y-50684D01*
X43515Y-50775D01*
X43635Y-50825D01*
X43764Y-50825D01*
X43884Y-50776D01*
X43975Y-50685D01*
X44025Y-50565D01*
X44025Y-50457D01*
X45782Y-48700D01*
X46596Y-48700D01*
X46619Y-48754D01*
X46745Y-48880D01*
X46910Y-48949D01*
X47089Y-48949D01*
X47254Y-48881D01*
X47380Y-48755D01*
X47449Y-48590D01*
X47449Y-49411D01*
X47381Y-49246D01*
X47255Y-49120D01*
X47090Y-49051D01*
X46911Y-49051D01*
X46746Y-49119D01*
X46620Y-49245D01*
X46551Y-49410D01*
X46551Y-49589D01*
X46619Y-49754D01*
X46745Y-49880D01*
X46910Y-49949D01*
X47089Y-49949D01*
X47254Y-49881D01*
X47380Y-49755D01*
X47449Y-49590D01*
X47449Y-50411D01*
X47381Y-50246D01*
X47255Y-50120D01*
X47090Y-50051D01*
X46911Y-50051D01*
X46746Y-50119D01*
X46620Y-50245D01*
X46551Y-50410D01*
X46551Y-50589D01*
X46619Y-50754D01*
X46745Y-50880D01*
X46910Y-50949D01*
X47089Y-50949D01*
X47254Y-50881D01*
X47380Y-50755D01*
X47449Y-50590D01*
X47449Y-51411D01*
X47381Y-51246D01*
X47255Y-51120D01*
X47090Y-51051D01*
X46911Y-51051D01*
X46746Y-51119D01*
X46620Y-51245D01*
X46551Y-51410D01*
X46551Y-51589D01*
X46619Y-51754D01*
X46745Y-51880D01*
X46910Y-51949D01*
X47089Y-51949D01*
X47254Y-51881D01*
X47380Y-51755D01*
X47449Y-51590D01*
X47449Y-52411D01*
X47381Y-52246D01*
X47255Y-52120D01*
X47090Y-52051D01*
X46911Y-52051D01*
X46746Y-52119D01*
X46620Y-52245D01*
X46551Y-52410D01*
X46551Y-52589D01*
X46619Y-52754D01*
X46745Y-52880D01*
X46910Y-52949D01*
X47089Y-52949D01*
X47254Y-52881D01*
X47380Y-52755D01*
X47449Y-52590D01*
X47449Y-53411D01*
X47381Y-53246D01*
X47255Y-53120D01*
X47090Y-53051D01*
X46911Y-53051D01*
X46746Y-53119D01*
X46620Y-53245D01*
X46551Y-53410D01*
X46551Y-53589D01*
X46619Y-53754D01*
X46745Y-53880D01*
X46910Y-53949D01*
X47089Y-53949D01*
X47254Y-53881D01*
X47380Y-53755D01*
X47449Y-53590D01*
X47449Y-54000D01*
X46782Y-54000D01*
X46400Y-53618D01*
X46400Y-53560D01*
X46475Y-53485D01*
X46525Y-53365D01*
X46525Y-53236D01*
X46476Y-53116D01*
X46385Y-53025D01*
X46265Y-52975D01*
X46136Y-52975D01*
X46016Y-53024D01*
X45925Y-53115D01*
X45875Y-53235D01*
X45875Y-53364D01*
X45924Y-53484D01*
X46000Y-53560D01*
X46000Y-53700D01*
X46015Y-53777D01*
X46059Y-53841D01*
X46559Y-54341D01*
X46623Y-54385D01*
X46624Y-54385D01*
X46700Y-54400D01*
X48800Y-54400D01*
X48800Y-54399D01*
X48876Y-54385D01*
X48877Y-54385D01*
X48941Y-54341D01*
X49441Y-53841D01*
X50241Y-53042D01*
X50241Y-53041D01*
X50285Y-52977D01*
X50299Y-52900D01*
X50300Y-52900D01*
X50300Y-48482D01*
X50856Y-47926D01*
X50910Y-47949D01*
X51089Y-47949D01*
X51254Y-47881D01*
X51380Y-47755D01*
X51449Y-47590D01*
X51449Y-49411D01*
X51381Y-49246D01*
X51255Y-49120D01*
X51090Y-49051D01*
X50911Y-49051D01*
X50746Y-49119D01*
X50620Y-49245D01*
X50551Y-49410D01*
X50551Y-49589D01*
X50619Y-49754D01*
X50745Y-49880D01*
X50910Y-49949D01*
X51089Y-49949D01*
X51254Y-49881D01*
X51380Y-49755D01*
X51449Y-49590D01*
X51449Y-50411D01*
X51381Y-50246D01*
X51255Y-50120D01*
X51090Y-50051D01*
X50911Y-50051D01*
X50746Y-50119D01*
X50620Y-50245D01*
X50551Y-50410D01*
X50551Y-50589D01*
X50619Y-50754D01*
X50745Y-50880D01*
X50910Y-50949D01*
X51089Y-50949D01*
X51254Y-50881D01*
X51380Y-50755D01*
X51449Y-50590D01*
X51449Y-53411D01*
X51381Y-53246D01*
X51255Y-53120D01*
X51090Y-53051D01*
X50911Y-53051D01*
X50746Y-53119D01*
X50620Y-53245D01*
X50551Y-53410D01*
X50551Y-53589D01*
X50619Y-53754D01*
X50745Y-53880D01*
X50910Y-53949D01*
X51089Y-53949D01*
X51254Y-53881D01*
X51380Y-53755D01*
X51449Y-53590D01*
X51449Y-55775D01*
X39725Y-55775D01*
X39725Y-54826D01*
X39759Y-54860D01*
X39915Y-54925D01*
X40084Y-54925D01*
X40240Y-54861D01*
X40360Y-54741D01*
X40425Y-54585D01*
X40425Y-54416D01*
X40361Y-54260D01*
X40241Y-54140D01*
X40085Y-54075D01*
X39916Y-54075D01*
X39760Y-54139D01*
X39725Y-54174D01*
X39725Y-53826D01*
X39759Y-53860D01*
X39915Y-53925D01*
X40084Y-53925D01*
X40240Y-53861D01*
X40360Y-53741D01*
X40425Y-53585D01*
X40425Y-53416D01*
X40361Y-53260D01*
X40241Y-53140D01*
X40085Y-53075D01*
X39916Y-53075D01*
X39760Y-53139D01*
X39725Y-53174D01*
X39725Y-52826D01*
X39759Y-52860D01*
X39915Y-52925D01*
X40084Y-52925D01*
X40240Y-52861D01*
X40360Y-52741D01*
X40425Y-52585D01*
X40425Y-52416D01*
X40361Y-52260D01*
X40241Y-52140D01*
X40085Y-52075D01*
X39916Y-52075D01*
X39760Y-52139D01*
X39725Y-52174D01*
X39725Y-51826D01*
X39759Y-51860D01*
X39915Y-51925D01*
X40084Y-51925D01*
X40240Y-51861D01*
X40360Y-51741D01*
X40425Y-51585D01*
X40425Y-51416D01*
X40361Y-51260D01*
X40241Y-51140D01*
X40085Y-51075D01*
X39916Y-51075D01*
X39760Y-51139D01*
X39725Y-51174D01*
X39725Y-50826D01*
X39759Y-50860D01*
X39915Y-50925D01*
X40084Y-50925D01*
X40240Y-50861D01*
X40360Y-50741D01*
X40425Y-50585D01*
X40425Y-50416D01*
X40361Y-50260D01*
X40241Y-50140D01*
X40085Y-50075D01*
X39916Y-50075D01*
X39760Y-50139D01*
X39725Y-50174D01*
X39725Y-49826D01*
X39759Y-49860D01*
X39915Y-49925D01*
X40084Y-49925D01*
X40240Y-49861D01*
X40360Y-49741D01*
X40425Y-49585D01*
X40425Y-49416D01*
X40361Y-49260D01*
X40241Y-49140D01*
X40085Y-49075D01*
X39916Y-49075D01*
X39760Y-49139D01*
X39725Y-49174D01*
X39725Y-48826D01*
X39759Y-48860D01*
X39915Y-48925D01*
X40084Y-48925D01*
X40240Y-48861D01*
X40360Y-48741D01*
X40425Y-48585D01*
X40425Y-48416D01*
X40361Y-48260D01*
X40241Y-48140D01*
X40085Y-48075D01*
X39916Y-48075D01*
X39760Y-48139D01*
X39725Y-48174D01*
X39725Y-47826D01*
X39759Y-47860D01*
X39915Y-47925D01*
X40084Y-47925D01*
X40240Y-47861D01*
X40360Y-47741D01*
X40425Y-47585D01*
X40425Y-47416D01*
X40361Y-47260D01*
X40241Y-47140D01*
X40085Y-47075D01*
X39916Y-47075D01*
X39760Y-47139D01*
X39725Y-47174D01*
X39725Y-46826D01*
X39759Y-46860D01*
X39915Y-46925D01*
X40084Y-46925D01*
X40240Y-46861D01*
X40360Y-46741D01*
X40425Y-46585D01*
X40425Y-46416D01*
X40361Y-46260D01*
X40241Y-46140D01*
X40085Y-46075D01*
X39916Y-46075D01*
X39760Y-46139D01*
X39725Y-46174D01*
X39725Y-45924D01*
X39755Y-45924D01*
X40305Y-45924D01*
X40360Y-45901D01*
X40402Y-45859D01*
X40424Y-45804D01*
X40424Y-45745D01*
X40424Y-45195D01*
X40401Y-45140D01*
X40359Y-45098D01*
X40304Y-45076D01*
X40245Y-45076D01*
X39725Y-45076D01*
X39725Y-44225D01*
X58275Y-44225D01*
X58275Y-44976D01*
X58226Y-44976D01*
X58112Y-44975D01*
X58050Y-45037D01*
X58050Y-45400D01*
X58050Y-45450D01*
X58050Y-45550D01*
X58050Y-45600D01*
X58050Y-45963D01*
X58112Y-46025D01*
X58226Y-46024D01*
X58275Y-46024D01*
X58275Y-46174D01*
X58241Y-46140D01*
X58085Y-46075D01*
X57950Y-46075D01*
X57950Y-45963D01*
X57950Y-45550D01*
X57950Y-45450D01*
X57950Y-45037D01*
X57888Y-44975D01*
X57774Y-44976D01*
X57675Y-44976D01*
X57584Y-45014D01*
X57514Y-45084D01*
X57476Y-45176D01*
X57475Y-45388D01*
X57537Y-45450D01*
X57950Y-45450D01*
X57950Y-45550D01*
X57537Y-45550D01*
X57475Y-45612D01*
X57476Y-45824D01*
X57514Y-45916D01*
X57584Y-45986D01*
X57675Y-46024D01*
X57774Y-46024D01*
X57888Y-46025D01*
X57950Y-45963D01*
X57950Y-46075D01*
X57916Y-46075D01*
X57760Y-46139D01*
X57640Y-46259D01*
X57575Y-46415D01*
X57575Y-46584D01*
X57639Y-46740D01*
X57759Y-46860D01*
X57915Y-46925D01*
X58084Y-46925D01*
X58240Y-46861D01*
X58275Y-46826D01*
X58275Y-47174D01*
X58241Y-47140D01*
X58085Y-47075D01*
X57916Y-47075D01*
X57760Y-47139D01*
X57640Y-47259D01*
X57575Y-47415D01*
X57575Y-47584D01*
X57639Y-47740D01*
X57759Y-47860D01*
X57915Y-47925D01*
X58084Y-47925D01*
X58240Y-47861D01*
X58275Y-47826D01*
X58275Y-48174D01*
X58241Y-48140D01*
X58085Y-48075D01*
X57916Y-48075D01*
X57760Y-48139D01*
X57640Y-48259D01*
X57575Y-48415D01*
X57575Y-48584D01*
X57639Y-48740D01*
X57759Y-48860D01*
X57915Y-48925D01*
X58084Y-48925D01*
X58240Y-48861D01*
X58275Y-48826D01*
X58275Y-49174D01*
X58241Y-49140D01*
X58085Y-49075D01*
X57916Y-49075D01*
X57760Y-49139D01*
X57640Y-49259D01*
X57575Y-49415D01*
X57575Y-49584D01*
X57639Y-49740D01*
X57759Y-49860D01*
X57915Y-49925D01*
X58084Y-49925D01*
X58240Y-49861D01*
X58275Y-49826D01*
X58275Y-50174D01*
X58241Y-50140D01*
X58085Y-50075D01*
X57916Y-50075D01*
X57760Y-50139D01*
X57640Y-50259D01*
X57575Y-50415D01*
X57575Y-50584D01*
X57639Y-50740D01*
X57759Y-50860D01*
X57915Y-50925D01*
X58084Y-50925D01*
X58240Y-50861D01*
X58275Y-50826D01*
X58275Y-51174D01*
X58241Y-51140D01*
X58085Y-51075D01*
X57916Y-51075D01*
X57760Y-51139D01*
X57640Y-51259D01*
X57575Y-51415D01*
X57575Y-51584D01*
X57639Y-51740D01*
X57759Y-51860D01*
X57915Y-51925D01*
X58084Y-51925D01*
X58240Y-51861D01*
X58275Y-51826D01*
X58275Y-52174D01*
X58241Y-52140D01*
X58085Y-52075D01*
X57916Y-52075D01*
X57760Y-52139D01*
X57640Y-52259D01*
X57575Y-52415D01*
X57575Y-52584D01*
X57639Y-52740D01*
X57759Y-52860D01*
X57915Y-52925D01*
X58084Y-52925D01*
X58240Y-52861D01*
X58275Y-52826D01*
X58275Y-53174D01*
X58241Y-53140D01*
X58085Y-53075D01*
X57916Y-53075D01*
X57760Y-53139D01*
X57640Y-53259D01*
X57575Y-53415D01*
X57575Y-53584D01*
X57639Y-53740D01*
X57759Y-53860D01*
X57915Y-53925D01*
X58084Y-53925D01*
X58240Y-53861D01*
X58275Y-53826D01*
X58275Y-54174D01*
X58241Y-54140D01*
X58085Y-54075D01*
X57916Y-54075D01*
X57760Y-54139D01*
X57640Y-54259D01*
X57575Y-54415D01*
X57575Y-54584D01*
X57639Y-54740D01*
X57759Y-54860D01*
X57915Y-54925D01*
X58084Y-54925D01*
X58240Y-54861D01*
X58275Y-54826D01*
X58275Y-55775D01*
M02*
