M48
;DRILL file {Pcbnew (2012-01-19 BZR 3256)-stable} date 1/26/2013 3:08:00 PM
;FORMAT={2:4/ absolute / inch / keep zeros}
FMAT,2
INCH,TZ
T1C0.025
T2C0.032
%
G90
G05
M72
T1
X043000Y-051500
X043300Y-052100
X043700Y-050500
X044000Y-053300
X044000Y-054200
X044800Y-053100
X046200Y-053300
T2
X040000Y-045500
X040000Y-046500
X040000Y-047500
X040000Y-048500
X040000Y-049500
X040000Y-050500
X040000Y-051500
X040000Y-052500
X040000Y-053500
X040000Y-054500
X047000Y-047500
X047000Y-048500
X047000Y-049500
X047000Y-050500
X047000Y-051500
X047000Y-052500
X047000Y-053500
X051000Y-046500
X051000Y-047500
X051000Y-049500
X051000Y-050500
X051000Y-053500
X058000Y-045500
X058000Y-046500
X058000Y-047500
X058000Y-048500
X058000Y-049500
X058000Y-050500
X058000Y-051500
X058000Y-052500
X058000Y-053500
X058000Y-054500
T0
M30
