G04 (created by PCBNEW-RS274X (2012-01-19 BZR 3256)-stable) date 1/26/2013 3:19:43 PM*
G01*
G70*
G90*
%MOIN*%
G04 Gerber Fmt 3.4, Leading zero omitted, Abs format*
%FSLAX34Y34*%
G04 APERTURE LIST*
%ADD10C,0.006000*%
%ADD11C,0.012000*%
%ADD12C,0.005000*%
G04 APERTURE END LIST*
G54D10*
G54D11*
X58500Y-45000D02*
X57500Y-45000D01*
X57500Y-45000D02*
X57500Y-55000D01*
X57500Y-55000D02*
X58500Y-55000D01*
X58500Y-55000D02*
X58500Y-45000D01*
X58500Y-46000D02*
X57500Y-46000D01*
X40500Y-45000D02*
X39500Y-45000D01*
X39500Y-45000D02*
X39500Y-55000D01*
X39500Y-55000D02*
X40500Y-55000D01*
X40500Y-55000D02*
X40500Y-45000D01*
X40500Y-46000D02*
X39500Y-46000D01*
G54D12*
X57262Y-45178D02*
X56862Y-45178D01*
X56862Y-45293D01*
X56881Y-45321D01*
X56900Y-45336D01*
X56938Y-45350D01*
X56995Y-45350D01*
X57033Y-45336D01*
X57052Y-45321D01*
X57071Y-45293D01*
X57071Y-45178D01*
X56900Y-45464D02*
X56881Y-45478D01*
X56862Y-45507D01*
X56862Y-45578D01*
X56881Y-45607D01*
X56900Y-45621D01*
X56938Y-45636D01*
X56976Y-45636D01*
X57033Y-45621D01*
X57262Y-45450D01*
X57262Y-45636D01*
X41062Y-45278D02*
X40662Y-45278D01*
X40662Y-45393D01*
X40681Y-45421D01*
X40700Y-45436D01*
X40738Y-45450D01*
X40795Y-45450D01*
X40833Y-45436D01*
X40852Y-45421D01*
X40871Y-45393D01*
X40871Y-45278D01*
X41062Y-45736D02*
X41062Y-45564D01*
X41062Y-45650D02*
X40662Y-45650D01*
X40719Y-45621D01*
X40757Y-45593D01*
X40776Y-45564D01*
M02*
