G04 (created by PCBNEW-RS274X (2012-01-19 BZR 3256)-stable) date 1/26/2013 3:19:43 PM*
G01*
G70*
G90*
%MOIN*%
G04 Gerber Fmt 3.4, Leading zero omitted, Abs format*
%FSLAX34Y34*%
G04 APERTURE LIST*
%ADD10C,0.006000*%
%ADD11C,0.005000*%
%ADD12C,0.008000*%
%ADD13C,0.015000*%
G04 APERTURE END LIST*
G54D10*
G54D11*
X57207Y-55662D02*
X57107Y-55471D01*
X57035Y-55662D02*
X57035Y-55262D01*
X57150Y-55262D01*
X57178Y-55281D01*
X57193Y-55300D01*
X57207Y-55338D01*
X57207Y-55395D01*
X57193Y-55433D01*
X57178Y-55452D01*
X57150Y-55471D01*
X57035Y-55471D01*
X57450Y-55643D02*
X57421Y-55662D01*
X57364Y-55662D01*
X57335Y-55643D01*
X57321Y-55605D01*
X57321Y-55452D01*
X57335Y-55414D01*
X57364Y-55395D01*
X57421Y-55395D01*
X57450Y-55414D01*
X57464Y-55452D01*
X57464Y-55490D01*
X57321Y-55529D01*
X57564Y-55395D02*
X57635Y-55662D01*
X57707Y-55395D01*
X57807Y-55300D02*
X57821Y-55281D01*
X57850Y-55262D01*
X57921Y-55262D01*
X57950Y-55281D01*
X57964Y-55300D01*
X57979Y-55338D01*
X57979Y-55376D01*
X57964Y-55433D01*
X57793Y-55662D01*
X57979Y-55662D01*
X43950Y-52650D02*
X43947Y-52679D01*
X43938Y-52707D01*
X43924Y-52733D01*
X43906Y-52755D01*
X43883Y-52774D01*
X43858Y-52788D01*
X43830Y-52796D01*
X43801Y-52799D01*
X43772Y-52797D01*
X43744Y-52789D01*
X43718Y-52775D01*
X43696Y-52757D01*
X43677Y-52734D01*
X43663Y-52709D01*
X43654Y-52681D01*
X43651Y-52652D01*
X43653Y-52623D01*
X43661Y-52595D01*
X43674Y-52569D01*
X43693Y-52546D01*
X43715Y-52527D01*
X43740Y-52513D01*
X43768Y-52504D01*
X43797Y-52501D01*
X43826Y-52503D01*
X43854Y-52511D01*
X43880Y-52524D01*
X43903Y-52542D01*
X43922Y-52564D01*
X43937Y-52589D01*
X43946Y-52617D01*
X43949Y-52646D01*
X43950Y-52650D01*
G54D12*
X43500Y-52350D02*
X43500Y-54250D01*
X43500Y-54250D02*
X45300Y-54250D01*
X45300Y-54250D02*
X45300Y-52350D01*
X45300Y-52350D02*
X43500Y-52350D01*
G54D11*
X56050Y-50250D02*
X56950Y-50250D01*
X56950Y-50250D02*
X56950Y-50750D01*
X56950Y-50750D02*
X56050Y-50750D01*
X56050Y-50750D02*
X56050Y-50250D01*
X56050Y-51250D02*
X56950Y-51250D01*
X56950Y-51250D02*
X56950Y-51750D01*
X56950Y-51750D02*
X56050Y-51750D01*
X56050Y-51750D02*
X56050Y-51250D01*
X41950Y-51750D02*
X41050Y-51750D01*
X41050Y-51750D02*
X41050Y-51250D01*
X41050Y-51250D02*
X41950Y-51250D01*
X41950Y-51250D02*
X41950Y-51750D01*
X41950Y-50750D02*
X41050Y-50750D01*
X41050Y-50750D02*
X41050Y-50250D01*
X41050Y-50250D02*
X41950Y-50250D01*
X41950Y-50250D02*
X41950Y-50750D01*
X41950Y-49750D02*
X41050Y-49750D01*
X41050Y-49750D02*
X41050Y-49250D01*
X41050Y-49250D02*
X41950Y-49250D01*
X41950Y-49250D02*
X41950Y-49750D01*
X41950Y-48750D02*
X41050Y-48750D01*
X41050Y-48750D02*
X41050Y-48250D01*
X41050Y-48250D02*
X41950Y-48250D01*
X41950Y-48250D02*
X41950Y-48750D01*
X41950Y-47750D02*
X41050Y-47750D01*
X41050Y-47750D02*
X41050Y-47250D01*
X41050Y-47250D02*
X41950Y-47250D01*
X41950Y-47250D02*
X41950Y-47750D01*
X41950Y-46750D02*
X41050Y-46750D01*
X41050Y-46750D02*
X41050Y-46250D01*
X41050Y-46250D02*
X41950Y-46250D01*
X41950Y-46250D02*
X41950Y-46750D01*
X56950Y-54750D02*
X56050Y-54750D01*
X56050Y-54750D02*
X56050Y-54250D01*
X56050Y-54250D02*
X56950Y-54250D01*
X56950Y-54250D02*
X56950Y-54750D01*
X41950Y-54750D02*
X41050Y-54750D01*
X41050Y-54750D02*
X41050Y-54250D01*
X41050Y-54250D02*
X41950Y-54250D01*
X41950Y-54250D02*
X41950Y-54750D01*
X41950Y-53750D02*
X41050Y-53750D01*
X41050Y-53750D02*
X41050Y-53250D01*
X41050Y-53250D02*
X41950Y-53250D01*
X41950Y-53250D02*
X41950Y-53750D01*
X41950Y-52750D02*
X41050Y-52750D01*
X41050Y-52750D02*
X41050Y-52250D01*
X41050Y-52250D02*
X41950Y-52250D01*
X41950Y-52250D02*
X41950Y-52750D01*
X56250Y-45250D02*
X57150Y-45250D01*
X57150Y-45250D02*
X57150Y-45750D01*
X57150Y-45750D02*
X56250Y-45750D01*
X56250Y-45750D02*
X56250Y-45250D01*
G54D13*
X47250Y-49250D02*
X47250Y-50850D01*
X50550Y-49250D02*
X50550Y-50850D01*
X47250Y-50850D02*
X50550Y-50850D01*
X47250Y-49250D02*
X50550Y-49250D01*
X51500Y-55900D02*
X46500Y-55900D01*
X46500Y-55900D02*
X46500Y-44100D01*
X46500Y-44100D02*
X51500Y-44100D01*
X51500Y-44100D02*
X51500Y-55900D01*
X48950Y-50850D02*
X48950Y-49250D01*
G54D11*
X43571Y-51762D02*
X43571Y-52086D01*
X43586Y-52124D01*
X43600Y-52143D01*
X43629Y-52162D01*
X43686Y-52162D01*
X43714Y-52143D01*
X43729Y-52124D01*
X43743Y-52086D01*
X43743Y-51762D01*
X44043Y-52162D02*
X43871Y-52162D01*
X43957Y-52162D02*
X43957Y-51762D01*
X43928Y-51819D01*
X43900Y-51857D01*
X43871Y-51876D01*
X55307Y-50662D02*
X55207Y-50471D01*
X55135Y-50662D02*
X55135Y-50262D01*
X55250Y-50262D01*
X55278Y-50281D01*
X55293Y-50300D01*
X55307Y-50338D01*
X55307Y-50395D01*
X55293Y-50433D01*
X55278Y-50452D01*
X55250Y-50471D01*
X55135Y-50471D01*
X55593Y-50662D02*
X55421Y-50662D01*
X55507Y-50662D02*
X55507Y-50262D01*
X55478Y-50319D01*
X55450Y-50357D01*
X55421Y-50376D01*
X55707Y-50300D02*
X55721Y-50281D01*
X55750Y-50262D01*
X55821Y-50262D01*
X55850Y-50281D01*
X55864Y-50300D01*
X55879Y-50338D01*
X55879Y-50376D01*
X55864Y-50433D01*
X55693Y-50662D01*
X55879Y-50662D01*
X55307Y-51662D02*
X55207Y-51471D01*
X55135Y-51662D02*
X55135Y-51262D01*
X55250Y-51262D01*
X55278Y-51281D01*
X55293Y-51300D01*
X55307Y-51338D01*
X55307Y-51395D01*
X55293Y-51433D01*
X55278Y-51452D01*
X55250Y-51471D01*
X55135Y-51471D01*
X55593Y-51662D02*
X55421Y-51662D01*
X55507Y-51662D02*
X55507Y-51262D01*
X55478Y-51319D01*
X55450Y-51357D01*
X55421Y-51376D01*
X55879Y-51662D02*
X55707Y-51662D01*
X55793Y-51662D02*
X55793Y-51262D01*
X55764Y-51319D01*
X55736Y-51357D01*
X55707Y-51376D01*
X42307Y-51662D02*
X42207Y-51471D01*
X42135Y-51662D02*
X42135Y-51262D01*
X42250Y-51262D01*
X42278Y-51281D01*
X42293Y-51300D01*
X42307Y-51338D01*
X42307Y-51395D01*
X42293Y-51433D01*
X42278Y-51452D01*
X42250Y-51471D01*
X42135Y-51471D01*
X42593Y-51662D02*
X42421Y-51662D01*
X42507Y-51662D02*
X42507Y-51262D01*
X42478Y-51319D01*
X42450Y-51357D01*
X42421Y-51376D01*
X42779Y-51262D02*
X42807Y-51262D01*
X42836Y-51281D01*
X42850Y-51300D01*
X42864Y-51338D01*
X42879Y-51414D01*
X42879Y-51510D01*
X42864Y-51586D01*
X42850Y-51624D01*
X42836Y-51643D01*
X42807Y-51662D01*
X42779Y-51662D01*
X42750Y-51643D01*
X42736Y-51624D01*
X42721Y-51586D01*
X42707Y-51510D01*
X42707Y-51414D01*
X42721Y-51338D01*
X42736Y-51300D01*
X42750Y-51281D01*
X42779Y-51262D01*
X42350Y-50662D02*
X42250Y-50471D01*
X42178Y-50662D02*
X42178Y-50262D01*
X42293Y-50262D01*
X42321Y-50281D01*
X42336Y-50300D01*
X42350Y-50338D01*
X42350Y-50395D01*
X42336Y-50433D01*
X42321Y-50452D01*
X42293Y-50471D01*
X42178Y-50471D01*
X42493Y-50662D02*
X42550Y-50662D01*
X42578Y-50643D01*
X42593Y-50624D01*
X42621Y-50567D01*
X42636Y-50490D01*
X42636Y-50338D01*
X42621Y-50300D01*
X42607Y-50281D01*
X42578Y-50262D01*
X42521Y-50262D01*
X42493Y-50281D01*
X42478Y-50300D01*
X42464Y-50338D01*
X42464Y-50433D01*
X42478Y-50471D01*
X42493Y-50490D01*
X42521Y-50510D01*
X42578Y-50510D01*
X42607Y-50490D01*
X42621Y-50471D01*
X42636Y-50433D01*
X42350Y-49662D02*
X42250Y-49471D01*
X42178Y-49662D02*
X42178Y-49262D01*
X42293Y-49262D01*
X42321Y-49281D01*
X42336Y-49300D01*
X42350Y-49338D01*
X42350Y-49395D01*
X42336Y-49433D01*
X42321Y-49452D01*
X42293Y-49471D01*
X42178Y-49471D01*
X42521Y-49433D02*
X42493Y-49414D01*
X42478Y-49395D01*
X42464Y-49357D01*
X42464Y-49338D01*
X42478Y-49300D01*
X42493Y-49281D01*
X42521Y-49262D01*
X42578Y-49262D01*
X42607Y-49281D01*
X42621Y-49300D01*
X42636Y-49338D01*
X42636Y-49357D01*
X42621Y-49395D01*
X42607Y-49414D01*
X42578Y-49433D01*
X42521Y-49433D01*
X42493Y-49452D01*
X42478Y-49471D01*
X42464Y-49510D01*
X42464Y-49586D01*
X42478Y-49624D01*
X42493Y-49643D01*
X42521Y-49662D01*
X42578Y-49662D01*
X42607Y-49643D01*
X42621Y-49624D01*
X42636Y-49586D01*
X42636Y-49510D01*
X42621Y-49471D01*
X42607Y-49452D01*
X42578Y-49433D01*
X42350Y-48662D02*
X42250Y-48471D01*
X42178Y-48662D02*
X42178Y-48262D01*
X42293Y-48262D01*
X42321Y-48281D01*
X42336Y-48300D01*
X42350Y-48338D01*
X42350Y-48395D01*
X42336Y-48433D01*
X42321Y-48452D01*
X42293Y-48471D01*
X42178Y-48471D01*
X42450Y-48262D02*
X42650Y-48262D01*
X42521Y-48662D01*
X42350Y-47662D02*
X42250Y-47471D01*
X42178Y-47662D02*
X42178Y-47262D01*
X42293Y-47262D01*
X42321Y-47281D01*
X42336Y-47300D01*
X42350Y-47338D01*
X42350Y-47395D01*
X42336Y-47433D01*
X42321Y-47452D01*
X42293Y-47471D01*
X42178Y-47471D01*
X42607Y-47262D02*
X42550Y-47262D01*
X42521Y-47281D01*
X42507Y-47300D01*
X42478Y-47357D01*
X42464Y-47433D01*
X42464Y-47586D01*
X42478Y-47624D01*
X42493Y-47643D01*
X42521Y-47662D01*
X42578Y-47662D01*
X42607Y-47643D01*
X42621Y-47624D01*
X42636Y-47586D01*
X42636Y-47490D01*
X42621Y-47452D01*
X42607Y-47433D01*
X42578Y-47414D01*
X42521Y-47414D01*
X42493Y-47433D01*
X42478Y-47452D01*
X42464Y-47490D01*
X42350Y-46662D02*
X42250Y-46471D01*
X42178Y-46662D02*
X42178Y-46262D01*
X42293Y-46262D01*
X42321Y-46281D01*
X42336Y-46300D01*
X42350Y-46338D01*
X42350Y-46395D01*
X42336Y-46433D01*
X42321Y-46452D01*
X42293Y-46471D01*
X42178Y-46471D01*
X42621Y-46262D02*
X42478Y-46262D01*
X42464Y-46452D01*
X42478Y-46433D01*
X42507Y-46414D01*
X42578Y-46414D01*
X42607Y-46433D01*
X42621Y-46452D01*
X42636Y-46490D01*
X42636Y-46586D01*
X42621Y-46624D01*
X42607Y-46643D01*
X42578Y-46662D01*
X42507Y-46662D01*
X42478Y-46643D01*
X42464Y-46624D01*
X55550Y-54662D02*
X55450Y-54471D01*
X55378Y-54662D02*
X55378Y-54262D01*
X55493Y-54262D01*
X55521Y-54281D01*
X55536Y-54300D01*
X55550Y-54338D01*
X55550Y-54395D01*
X55536Y-54433D01*
X55521Y-54452D01*
X55493Y-54471D01*
X55378Y-54471D01*
X55807Y-54395D02*
X55807Y-54662D01*
X55736Y-54243D02*
X55664Y-54529D01*
X55850Y-54529D01*
X42350Y-54662D02*
X42250Y-54471D01*
X42178Y-54662D02*
X42178Y-54262D01*
X42293Y-54262D01*
X42321Y-54281D01*
X42336Y-54300D01*
X42350Y-54338D01*
X42350Y-54395D01*
X42336Y-54433D01*
X42321Y-54452D01*
X42293Y-54471D01*
X42178Y-54471D01*
X42450Y-54262D02*
X42636Y-54262D01*
X42536Y-54414D01*
X42578Y-54414D01*
X42607Y-54433D01*
X42621Y-54452D01*
X42636Y-54490D01*
X42636Y-54586D01*
X42621Y-54624D01*
X42607Y-54643D01*
X42578Y-54662D01*
X42493Y-54662D01*
X42464Y-54643D01*
X42450Y-54624D01*
X42350Y-53662D02*
X42250Y-53471D01*
X42178Y-53662D02*
X42178Y-53262D01*
X42293Y-53262D01*
X42321Y-53281D01*
X42336Y-53300D01*
X42350Y-53338D01*
X42350Y-53395D01*
X42336Y-53433D01*
X42321Y-53452D01*
X42293Y-53471D01*
X42178Y-53471D01*
X42464Y-53300D02*
X42478Y-53281D01*
X42507Y-53262D01*
X42578Y-53262D01*
X42607Y-53281D01*
X42621Y-53300D01*
X42636Y-53338D01*
X42636Y-53376D01*
X42621Y-53433D01*
X42450Y-53662D01*
X42636Y-53662D01*
X42350Y-52662D02*
X42250Y-52471D01*
X42178Y-52662D02*
X42178Y-52262D01*
X42293Y-52262D01*
X42321Y-52281D01*
X42336Y-52300D01*
X42350Y-52338D01*
X42350Y-52395D01*
X42336Y-52433D01*
X42321Y-52452D01*
X42293Y-52471D01*
X42178Y-52471D01*
X42636Y-52662D02*
X42464Y-52662D01*
X42550Y-52662D02*
X42550Y-52262D01*
X42521Y-52319D01*
X42493Y-52357D01*
X42464Y-52376D01*
X55750Y-45624D02*
X55736Y-45643D01*
X55693Y-45662D01*
X55664Y-45662D01*
X55621Y-45643D01*
X55593Y-45605D01*
X55578Y-45567D01*
X55564Y-45490D01*
X55564Y-45433D01*
X55578Y-45357D01*
X55593Y-45319D01*
X55621Y-45281D01*
X55664Y-45262D01*
X55693Y-45262D01*
X55736Y-45281D01*
X55750Y-45300D01*
X56036Y-45662D02*
X55864Y-45662D01*
X55950Y-45662D02*
X55950Y-45262D01*
X55921Y-45319D01*
X55893Y-45357D01*
X55864Y-45376D01*
X45762Y-55829D02*
X46086Y-55829D01*
X46124Y-55814D01*
X46143Y-55800D01*
X46162Y-55771D01*
X46162Y-55714D01*
X46143Y-55686D01*
X46124Y-55671D01*
X46086Y-55657D01*
X45762Y-55657D01*
X45800Y-55529D02*
X45781Y-55515D01*
X45762Y-55486D01*
X45762Y-55415D01*
X45781Y-55386D01*
X45800Y-55372D01*
X45838Y-55357D01*
X45876Y-55357D01*
X45933Y-55372D01*
X46162Y-55543D01*
X46162Y-55357D01*
M02*
